<?xml version="1.0" encoding="UTF-8" standalone="no"?>
<svg width="33px" height="33px" viewBox="0 0 33 33" version="1.1" xmlns="http://www.w3.org/2000/svg" xmlns:xlink="http://www.w3.org/1999/xlink">
    <!-- Generator: sketchtool 50.2 (55047) - http://www.bohemiancoding.com/sketch -->
    <title>F657E4E9-1F54-422C-B41C-5074307C84E2</title>
    <desc>Created with sketchtool.</desc>
    <defs></defs>
    <g id="5-Billings" stroke="none" stroke-width="1" fill="none" fill-rule="evenodd">
        <g id="5-1-1-Billings---Invoices---Details" transform="translate(-375.000000, -457.000000)" fill="#02A798" fill-rule="nonzero">
            <g id="invoice" transform="translate(325.000000, 307.000000)">
                <g id="title" transform="translate(49.500000, 150.262104)">
                    <g id="icon-bill">
                        <path d="M6.41540187,0.582215121 L6.41540187,20.9458515 L9.32449278,20.9458515 L9.32449278,3.49130603 L29.6881291,3.49130603 L29.6881291,26.7640333 C29.6881291,28.389034 28.404039,29.6731242 26.7790382,29.6731242 C25.154039,29.6731242 23.8699473,28.389034 23.8699473,26.7640333 L23.8699473,22.4003969 L0.597220056,22.4003969 L0.597220056,26.7640333 C0.597220056,29.9628973 3.21653787,32.5822151 6.41540187,32.5822151 L26.7790382,32.5822151 C29.9779022,32.5822151 32.5972201,29.9628973 32.5972201,26.7640333 L32.5972201,0.582215121 L6.41540187,0.582215121 Z M12.2335837,9.30948785 L12.2335837,12.2185788 L15.1426746,12.2185788 L15.1426746,9.30948785 L12.2335837,9.30948785 Z M18.0517655,9.30948785 L18.0517655,12.2185788 L26.7790382,12.2185788 L26.7790382,9.30948785 L18.0517655,9.30948785 Z M12.2335837,15.1276697 L12.2335837,18.0367606 L15.1426746,18.0367606 L15.1426746,15.1276697 L12.2335837,15.1276697 Z M18.0517655,15.1276697 L18.0517655,18.0367606 L26.7790382,18.0367606 L26.7790382,15.1276697 L18.0517655,15.1276697 Z M3.50631097,25.3094878 L20.9608564,25.3094878 L20.9608564,26.7640333 C20.9608564,27.8322151 21.2733568,28.8094878 21.7790382,29.6731242 L6.41540187,29.6731242 C4.7904026,29.6731242 3.50631097,28.389034 3.50631097,26.7640333 L3.50631097,25.3094878 Z" id="Shape"></path>
                    </g>
                </g>
            </g>
        </g>
    </g>
</svg>