<svg xmlns="http://www.w3.org/2000/svg" width="42" height="30" viewBox="0 0 42 30">
    <g fill="none" fill-rule="nonzero">
        <path fill="#1565C0" d="M42 26a4 4 0 0 1-4 4H4a4 4 0 0 1-4-4V4a4 4 0 0 1 4-4h34a4 4 0 0 1 4 4v22z"/>
        <g fill="#FFF">
            <path d="M12.186 10L9.56 17.832s-.667-3.313-.733-3.729c-1.495-3.411-3.701-3.221-3.701-3.221L7.726 21v-.002h3.161L15.258 10h-3.072zM14.689 21h2.871l1.736-11h-2.907zM35.008 10h-3.021l-4.71 11h2.852l.588-1.571h3.596L34.619 21h2.613l-2.224-11zm-3.495 7.328l1.563-4.157.818 4.157h-2.381zM23.369 13.206c0-.606.498-1.057 1.926-1.057.928 0 1.991.674 1.991.674l.466-2.309s-1.358-.515-2.691-.515c-3.019 0-4.576 1.444-4.576 3.272 0 3.306 3.979 2.853 3.979 4.551 0 .291-.231.964-1.888.964-1.662 0-2.759-.609-2.759-.609l-.495 2.216s1.063.606 3.117.606c2.059 0 4.915-1.54 4.915-3.752 0-2.661-3.985-2.853-3.985-4.041z"/>
        </g>
        <path fill="#FFC107" d="M9.212 15.945l-.966-4.748s-.437-1.029-1.573-1.029h-4.44s5.661 1.672 6.979 5.777z"/>
    </g>
</svg>
