<svg xmlns="http://www.w3.org/2000/svg" width="42" height="30" viewBox="0 0 42 30">
    <g fill="none" fill-rule="nonzero">
        <path fill="#3F51B5" d="M42 26a4 4 0 0 1-4 4H4a4 4 0 0 1-4-4V4a4 4 0 0 1 4-4h34a4 4 0 0 1 4 4v22z"/>
        <circle cx="27" cy="15" r="10" fill="#FFC107"/>
        <path fill="#FF3D00" d="M19.014 21a9.983 9.983 0 0 1-1.176-2h5.325a9.9 9.9 0 0 0 .637-2h-6.598A9.976 9.976 0 0 1 17 15h7c0-.686-.07-1.354-.201-2h-6.598a9.964 9.964 0 0 1 .637-2h5.325a9.936 9.936 0 0 0-1.176-2h-2.973c.437-.58.93-1.122 1.481-1.595A9.955 9.955 0 0 0 14 5C8.477 5 4 9.477 4 15s4.477 10 10 10c3.269 0 6.162-1.575 7.986-4h-2.972z"/>
    </g>
</svg>
