<?xml version="1.0" encoding="UTF-8" standalone="no"?>
<svg width="194px" height="42px" viewBox="0 0 194 42" version="1.1" xmlns="http://www.w3.org/2000/svg" xmlns:xlink="http://www.w3.org/1999/xlink">
    <!-- Generator: sketchtool 50.2 (55047) - http://www.bohemiancoding.com/sketch -->
    <title>1776E03E-4DF6-4943-A3A5-FA1ED239D324</title>
    <desc>Created with sketchtool.</desc>
    <defs></defs>
    <g id="5-Billings" stroke="none" stroke-width="1" fill="none" fill-rule="evenodd">
        <g id="5-1-1-Billings---Invoices---Details" transform="translate(-708.000000, -307.000000)" fill="#02A798">
            <g id="invoice" transform="translate(325.000000, 307.000000)">
                <g id="logo" transform="translate(383.000000, 0.262104)">
                    <polygon id="Fill-1" points="68.2400153 11.7334389 71.2771996 11.7334389 71.2771996 20.5955638 79.4999173 11.7334389 83.228968 11.7334389 76.0430601 19.3118003 83.5501563 29.3572245 79.8705953 29.3572245 73.9689457 21.4260013 71.2771996 24.2464207 71.2771996 29.3572245 68.2400153 29.3572245"></polygon>
                    <path d="M86.6831527,21.8795747 L86.6831527,11.7336864 L89.7203371,11.7336864 L89.7203371,21.7538708 C89.7203371,25.0266262 91.3747785,26.7889553 94.0912695,26.7889553 C96.7825207,26.7889553 98.4369621,25.1270903 98.4369621,21.8795747 L98.4369621,11.7336864 L101.474641,11.7336864 L101.474641,21.728631 C101.474641,26.9903784 98.5606864,29.6341195 94.0417798,29.6341195 C89.5476179,29.6341195 86.6831527,26.9903784 86.6831527,21.8795747" id="Fill-2"></path>
                    <path d="M106.188092,21.8795747 L106.188092,11.7336864 L109.225771,11.7336864 L109.225771,21.7538708 C109.225771,25.0266262 110.879718,26.7889553 113.596704,26.7889553 C116.287955,26.7889553 117.942396,25.1270903 117.942396,21.8795747 L117.942396,11.7336864 L120.980076,11.7336864 L120.980076,21.728631 C120.980076,26.9903784 118.066121,29.6341195 113.546719,29.6341195 C109.052557,29.6341195 106.188092,26.9903784 106.188092,21.8795747" id="Fill-4"></path>
                    <path d="M125.199124,20.5954648 L125.199124,20.5449853 C125.199124,15.5351405 128.878685,11.4309577 134.113213,11.4309577 C137.298372,11.4309577 139.225007,12.5642724 140.879448,14.1756578 L138.928563,16.4665371 C137.545326,15.1575339 136.064098,14.276122 134.088468,14.276122 C130.779585,14.276122 128.384778,17.0455669 128.384778,20.4950007 L128.384778,20.5449853 C128.384778,23.994419 130.779585,26.8143435 134.088468,26.8143435 C136.212072,26.8143435 137.57007,25.9329315 139.051793,24.5234642 L141.003173,26.5376959 C139.200262,28.4509687 137.224632,29.6590128 133.989984,29.6590128 C128.952425,29.6590128 125.199124,25.656284 125.199124,20.5954648" id="Fill-6"></path>
                    <path d="M155.495149,22.3580413 L152.507455,15.3082302 L149.544505,22.3580413 L155.495149,22.3580413 Z M151.149457,11.6073886 L153.963937,11.6073886 L161.569518,29.357373 L158.359615,29.357373 L156.606194,25.1022465 L148.432471,25.1022465 L146.655295,29.357373 L143.543876,29.357373 L151.149457,11.6073886 Z" id="Fill-8"></path>
                    <polygon id="Fill-10" points="165.344743 11.7334389 168.382422 11.7334389 168.382422 26.5377949 177.46923 26.5377949 177.46923 29.3572245 165.344743 29.3572245"></polygon>
                    <polygon id="Fill-12" points="181.467109 11.7334389 184.504788 11.7334389 184.504788 26.5377949 193.591597 26.5377949 193.591597 29.3572245 181.467109 29.3572245"></polygon>
                    <path d="M40.2821815,29.571515 C39.1849943,29.5725048 38.3332762,28.7148479 38.3387201,27.6137015 C38.343669,26.5358153 39.2433922,25.641536 40.3064315,25.6583625 C41.329879,25.6741992 42.225643,26.5803561 42.2365307,27.6107321 C42.2479134,28.6811949 41.3615524,29.5705252 40.2821815,29.571515" id="Fill-14"></path>
                    <path d="M14.2650378,29.571515 C13.2079373,29.5606273 12.3581987,28.6980214 12.3557242,27.6344872 C12.3532497,26.5526418 13.2410954,25.6563829 14.3080938,25.6628166 C15.3701433,25.6687554 16.2565043,26.5788714 16.2446267,27.649829 C16.2327492,28.7435519 15.3676688,29.5824027 14.2650378,29.571515" id="Fill-16"></path>
                    <path d="M22.8962931,23.8289749 C22.8859002,24.8702387 22.0084474,25.7363088 20.9503571,25.7481864 C19.876925,25.7610537 18.9791814,24.8717234 18.9786865,23.794827 C18.9776967,22.7233745 19.8734607,21.8434472 20.9548112,21.8523553 C22.0381413,21.8617584 22.9071808,22.7466346 22.8962931,23.8289749" id="Fill-18"></path>
                    <path d="M14.1795195,18.5266954 C15.2480027,18.5336239 16.0932872,19.3803931 16.1051647,20.4553099 C16.1175371,21.5406195 15.2287017,22.434404 14.1503206,22.4200519 C13.050164,22.4056999 12.2058694,21.528742 12.2286346,20.4241314 C12.2513999,19.3452554 13.0991589,18.5202617 14.1795195,18.5266954" id="Fill-20"></path>
                    <path d="M28.9541817,20.296052 C28.9502225,21.4006626 28.1009789,22.2380287 26.9978529,22.2251614 C25.9135331,22.2122941 25.0316262,21.3135607 25.0588455,20.2480469 C25.08557,19.1939158 25.9486708,18.3575395 27.0161641,18.3506109 C28.1222594,18.3431875 28.9581409,19.1825332 28.9541817,20.296052" id="Fill-22"></path>
                    <path d="M39.6817227,11.5188515 C40.7967262,11.5247903 41.6207301,12.3661156 41.6014291,13.4786445 C41.582623,14.5580154 40.7526803,15.3993407 39.6906309,15.4141876 C38.61126,15.4295295 37.7432102,14.5580154 37.7446949,13.4598385 C37.7461796,12.3329574 38.5642447,11.5129127 39.6817227,11.5188515" id="Fill-24"></path>
                    <path d="M33.6537754,22.188638 C34.7489829,22.1906176 35.6185174,23.0576775 35.6041654,24.134079 C35.5903083,25.1916744 34.7351258,26.0473518 33.6760457,26.0636834 C32.6021187,26.080015 31.70487,25.2045418 31.6934874,24.1276454 C31.6816099,23.0522337 32.5565882,22.1866584 33.6537754,22.188638" id="Fill-26"></path>
                    <path d="M33.6733238,15.2999654 C34.7660569,15.3093684 35.6261883,16.1853365 35.6044128,17.2647074 C35.5826373,18.3257671 34.7299294,19.1571944 33.6574871,19.1616485 C32.5731672,19.1661026 31.6902706,18.2906294 31.6952195,17.2167024 C31.7006634,16.1318876 32.5692081,15.2905623 33.6733238,15.2999654" id="Fill-28"></path>
                    <path d="M11.8517209,13.411685 C11.8621137,12.3169723 12.6707758,11.5182081 13.7684579,11.5191979 C14.8740583,11.5196928 15.7188479,12.3704212 15.7059806,13.4695879 C15.6936081,14.5583619 14.808237,15.43433 13.7402487,15.4145341 C12.6490003,15.3942433 11.8408331,14.5370813 11.8517209,13.411685" id="Fill-30"></path>
                    <path d="M40.2821815,29.571515 C39.1849943,29.5725048 38.3332762,28.7148479 38.3387201,27.6137015 C38.343669,26.5358153 39.2433922,25.641536 40.3064315,25.6583625 C41.329879,25.6741992 42.225643,26.5803561 42.2365307,27.6107321 C42.2479134,28.6811949 41.3615524,29.5705252 40.2821815,29.571515" id="Fill-32"></path>
                    <path d="M14.2650378,29.571515 C13.2079373,29.5606273 12.3581987,28.6980214 12.3557242,27.6344872 C12.3532497,26.5526418 13.2410954,25.6563829 14.3080938,25.6628166 C15.3701433,25.6687554 16.2565043,26.5788714 16.2446267,27.649829 C16.2327492,28.7435519 15.3676688,29.5824027 14.2650378,29.571515" id="Fill-34"></path>
                    <path d="M22.8962931,23.8289749 C22.8859002,24.8702387 22.0084474,25.7363088 20.9503571,25.7481864 C19.876925,25.7610537 18.9791814,24.8717234 18.9786865,23.794827 C18.9776967,22.7233745 19.8734607,21.8434472 20.9548112,21.8523553 C22.0381413,21.8617584 22.9071808,22.7466346 22.8962931,23.8289749" id="Fill-36"></path>
                    <path d="M14.1795195,18.5266954 C15.2480027,18.5336239 16.0932872,19.3803931 16.1051647,20.4553099 C16.1175371,21.5406195 15.2287017,22.434404 14.1503206,22.4200519 C13.050164,22.4056999 12.2058694,21.528742 12.2286346,20.4241314 C12.2513999,19.3452554 13.0991589,18.5202617 14.1795195,18.5266954" id="Fill-38"></path>
                    <path d="M28.9541817,20.296052 C28.9502225,21.4006626 28.1009789,22.2380287 26.9978529,22.2251614 C25.9135331,22.2122941 25.0316262,21.3135607 25.0588455,20.2480469 C25.08557,19.1939158 25.9486708,18.3575395 27.0161641,18.3506109 C28.1222594,18.3431875 28.9581409,19.1825332 28.9541817,20.296052" id="Fill-40"></path>
                    <path d="M39.6817227,11.5188515 C40.7967262,11.5247903 41.6207301,12.3661156 41.6014291,13.4786445 C41.582623,14.5580154 40.7526803,15.3993407 39.6906309,15.4141876 C38.61126,15.4295295 37.7432102,14.5580154 37.7446949,13.4598385 C37.7461796,12.3329574 38.5642447,11.5129127 39.6817227,11.5188515" id="Fill-42"></path>
                    <path d="M33.6537754,22.188638 C34.7489829,22.1906176 35.6185174,23.0576775 35.6041654,24.134079 C35.5903083,25.1916744 34.7351258,26.0473518 33.6760457,26.0636834 C32.6021187,26.080015 31.70487,25.2045418 31.6934874,24.1276454 C31.6816099,23.0522337 32.5565882,22.1866584 33.6537754,22.188638" id="Fill-44"></path>
                    <path d="M33.6733238,15.2999654 C34.7660569,15.3093684 35.6261883,16.1853365 35.6044128,17.2647074 C35.5826373,18.3257671 34.7299294,19.1571944 33.6574871,19.1616485 C32.5731672,19.1661026 31.6902706,18.2906294 31.6952195,17.2167024 C31.7006634,16.1318876 32.5692081,15.2905623 33.6733238,15.2999654" id="Fill-46"></path>
                    <path d="M11.8517209,13.411685 C11.8621137,12.3169723 12.6707758,11.5182081 13.7684579,11.5191979 C14.8740583,11.5196928 15.7188479,12.3704212 15.7059806,13.4695879 C15.6936081,14.5583619 14.808237,15.43433 13.7402487,15.4145341 C12.6490003,15.3942433 11.8408331,14.5370813 11.8517209,13.411685" id="Fill-48"></path>
                    <path d="M8.98042609,0.337044302 C4.19738687,0.337044302 0.319724418,4.21470676 0.319724418,8.99774597 L0.319724418,32.0931154 C0.319724418,36.8761546 4.19738687,40.7538171 8.98042609,40.7538171 L53.7686262,40.7538171 L53.7686262,8.99774597 C53.7686262,4.21454858 49.8913004,0.337044302 45.1079245,0.337044302 M51.29414,38.2793309 L8.98042609,38.2793309 C5.56400786,38.2793309 2.79421061,35.5095336 2.79421061,32.0931154 L2.79421061,8.99774597 C2.79421061,5.58132774 5.56400786,2.81153049 8.98042609,2.81153049 L45.1079245,2.81153049 C48.5246539,2.81153049 51.29414,5.58114406 51.29414,8.99774597" id="Stroke-50" fill-rule="nonzero"></path>
                </g>
            </g>
        </g>
    </g>
</svg>