<svg xmlns="http://www.w3.org/2000/svg" width="66" height="22" viewBox="0 0 66 22">
    <defs>
        <linearGradient id="a" x1=".001%" y1="49.964%" y2="49.964%">
            <stop offset="0%" stop-color="#241F5D"/>
            <stop offset="100%" stop-color="#034EA1"/>
        </linearGradient>
    </defs>
    <path fill="url(#a)" fill-rule="evenodd" d="M19.417.669l-5.54 14.003-2.24-11.906C11.373 1.436 10.334.669 9.181.669H.125L0 1.265c1.859.405 3.971 1.056 5.25 1.751.784.426 1.007.797 1.265 1.808l4.243 16.419h5.626L25.007.669h-5.59zm7.874 0l-4.403 20.574h5.323L32.61.669h-5.32zm30.515 5.559l1.612 7.725h-4.414l2.802-7.725zm-.78-5.56a2.422 2.422 0 0 0-2.266 1.51l-7.986 19.065h5.588l1.11-3.074H60.3l.644 3.074h4.922L61.568.669h-4.542zM34.062 7.094c-.035 2.963 2.643 4.614 4.66 5.6 2.073 1.008 2.768 1.655 2.76 2.556-.015 1.381-1.654 1.99-3.186 2.013-2.675.042-4.228-.723-5.466-1.3l-.963 4.509c1.242.57 3.538 1.068 5.918 1.093 5.592 0 9.248-2.761 9.266-7.04.023-5.429-7.508-5.729-7.457-8.155.018-.737.72-1.522 2.258-1.723.762-.099 2.865-.176 5.247.92l.935-4.362c-1.281-.465-2.928-.912-4.98-.912-5.26 0-8.962 2.797-8.992 6.8z"/>
</svg>
