<?xml version="1.0" encoding="UTF-8"?>
<svg width="9px" height="13px" viewBox="0 0 9 13" version="1.1" xmlns="http://www.w3.org/2000/svg" xmlns:xlink="http://www.w3.org/1999/xlink">
    <!-- Generator: sketchtool 53.1 (72631) - https://sketchapp.com -->
    <title>5B623248-8EBE-472F-99BB-DAF0730EBA80</title>
    <desc>Created with sketchtool.</desc>
    <g id="2-Prospect" stroke="none" stroke-width="1" fill="none" fill-rule="evenodd">
        <g id="2-0-0-Prospects---All-Prospects" transform="translate(-433.000000, -132.000000)">
            <g id="Data-Table" transform="translate(265.000000, 116.000000)">
                <g id="Table-Title" transform="translate(58.000000, 16.000000)">
                    <g id="ico-sort-ascending" transform="translate(110.000000, 0.500000)">
                        <path d="M0.569910448,4.90901493 L8.2061194,4.90901493 C8.35385075,4.90901493 8.48173134,4.85507463 8.58964179,4.74710448 C8.69749254,4.63916418 8.75164179,4.51134328 8.75164179,4.36361194 C8.75164179,4.2158806 8.69752239,4.0881194 8.58964179,3.98002985 L4.77152239,0.161910448 C4.66364179,0.0540895522 4.53585075,0 4.38802985,0 C4.24020896,0 4.11241791,0.0540895522 4.00444776,0.161910448 L0.186328358,3.98002985 C0.078358209,4.088 0.0244179104,4.2158806 0.0244179104,4.36361194 C0.0244179104,4.51131343 0.078358209,4.63916418 0.186328358,4.74710448 C0.29441791,4.85507463 0.422208955,4.90901493 0.569910448,4.90901493 Z" id="Path" fill="#317FE5"></path>
                        <path d="M8.2061194,7.09101493 L0.569910448,7.09101493 C0.422089552,7.09101493 0.294298507,7.14498507 0.186328358,7.25283582 C0.078358209,7.36080597 0.0244179104,7.48859701 0.0244179104,7.63632836 C0.0244179104,7.7840597 0.078358209,7.9119403 0.186328358,8.01985075 L4.00444776,11.8379104 C4.11253731,11.9458806 4.24032836,11.9999403 4.38802985,11.9999403 C4.53573134,11.9999403 4.66364179,11.9458806 4.77152239,11.8379104 L8.58964179,8.0198209 C8.69749254,7.9119403 8.75164179,7.7840597 8.75164179,7.63629851 C8.75164179,7.48859701 8.69752239,7.36080597 8.58964179,7.25280597 C8.48176119,7.14486567 8.35385075,7.09101493 8.2061194,7.09101493 Z" id="Path" fill="#CCCCCC"></path>
                    </g>
                </g>
            </g>
        </g>
    </g>
</svg>