<?xml version="1.0" encoding="UTF-8"?>
<svg xmlns="http://www.w3.org/2000/svg" viewBox="0 0 16 16" width="16px" height="16px">
    <g fill="currentColor" fill-rule="nonzero" stroke="currentColor" stroke-width=".4">
        <path d="M10.645 10.603a.474.474 0 01-.336-.81l2.78-2.785c.611-.608.948-1.42.948-2.29a3.24 3.24 0 00-3.232-3.24c-.867 0-1.677.337-2.281.95L5.74 5.215a.475.475 0 01-.672-.67L7.85 1.76A4.122 4.122 0 0110.805.53a4.19 4.19 0 014.181 4.189 4.142 4.142 0 01-1.228 2.961l-2.777 2.784a.473.473 0 01-.336.14h0zM4.72 15.005a4.19 4.19 0 01-4.18-4.189c0-1.124.435-2.175 1.227-2.962l1.685-1.687a.474.474 0 11.672.67l-1.686 1.69a3.198 3.198 0 00-.95 2.29 3.24 3.24 0 003.232 3.239c.866 0 1.676-.337 2.282-.95l1.688-1.69a.474.474 0 11.672.67l-1.687 1.69a4.121 4.121 0 01-2.955 1.229h0z"/>
        <path d="M8.026 7.98a.474.474 0 01-.336-.81l2.53-2.538a.475.475 0 11.673.67L8.36 7.84a.471.471 0 01-.335.14h0zM5.014 11.086a.474.474 0 01-.336-.81L6.09 8.862a.475.475 0 11.672.67l-1.41 1.414a.474.474 0 01-.337.14z"/>
        <path d="M14.511 14.479a.472.472 0 01-.336-.14l-12.971-13a.475.475 0 01.672-.67l12.971 13a.475.475 0 01-.336.81z"/>
    </g>
</svg>
