<?xml version="1.0" encoding="UTF-8"?>

<svg width="10" height="36" viewBox="0 0 10 36" fill="none" xmlns="http://www.w3.org/2000/svg">
    <path fill-rule="evenodd" clip-rule="evenodd"
          d="M1.96034 3.92308C0.877995 3.92308 -0.001202 3.04497 -0.00120195 1.96154C-0.00120191 0.878105 0.877995 -1.33052e-07 1.96034 -8.57414e-08C3.04268 -3.84309e-08 3.92187 0.878105 3.92187 1.96154C3.92187 3.04497 3.04268 3.92308 1.96034 3.92308Z"
          fill="currentColor"/>
    <path fill-rule="evenodd" clip-rule="evenodd"
          d="M7.88612 3.92308C6.80378 3.92308 5.92458 3.04497 5.92458 1.96154C5.92458 0.878105 6.80378 -1.33052e-07 7.88612 -8.57411e-08C8.96846 -3.84307e-08 9.84766 0.878105 9.84766 1.96154C9.84766 3.04497 8.96846 3.92308 7.88612 3.92308Z"
          fill="currentColor"/>
    <path fill-rule="evenodd" clip-rule="evenodd"
          d="M1.96034 22.9231C0.877995 22.9231 -0.001202 22.045 -0.00120195 20.9615C-0.00120191 19.8781 0.877995 19 1.96034 19C3.04268 19 3.92187 19.8781 3.92187 20.9615C3.92187 22.045 3.04268 22.9231 1.96034 22.9231Z"
          fill="currentColor"/>
    <path fill-rule="evenodd" clip-rule="evenodd"
          d="M7.88612 22.9231C6.80378 22.9231 5.92458 22.045 5.92458 20.9615C5.92458 19.8781 6.80378 19 7.88612 19C8.96846 19 9.84766 19.8781 9.84766 20.9615C9.84766 22.045 8.96846 22.9231 7.88612 22.9231Z"
          fill="currentColor"/>
    <path fill-rule="evenodd" clip-rule="evenodd"
          d="M-0.00120219 8.50011C-0.00120214 7.41668 0.877995 6.53857 1.96034 6.53857C3.04268 6.53857 3.92187 7.41668 3.92187 8.50011C3.92187 9.58355 3.04268 10.4617 1.96034 10.4617C0.877995 10.4617 -0.00120224 9.58355 -0.00120219 8.50011Z"
          fill="currentColor"/>
    <path fill-rule="evenodd" clip-rule="evenodd"
          d="M5.92458 8.50011C5.92458 7.41668 6.80378 6.53857 7.88612 6.53857C8.96846 6.53857 9.84766 7.41668 9.84766 8.50011C9.84766 9.58355 8.96846 10.4617 7.88612 10.4617C6.80378 10.4617 5.92458 9.58355 5.92458 8.50011Z"
          fill="currentColor"/>
    <path fill-rule="evenodd" clip-rule="evenodd"
          d="M-0.00120219 27.5001C-0.00120214 26.4167 0.877995 25.5386 1.96034 25.5386C3.04268 25.5386 3.92187 26.4167 3.92187 27.5001C3.92187 28.5835 3.04268 29.4617 1.96034 29.4617C0.877995 29.4617 -0.00120224 28.5835 -0.00120219 27.5001Z"
          fill="currentColor"/>
    <path fill-rule="evenodd" clip-rule="evenodd"
          d="M5.92458 27.5001C5.92458 26.4167 6.80378 25.5386 7.88612 25.5386C8.96846 25.5386 9.84766 26.4167 9.84766 27.5001C9.84766 28.5835 8.96846 29.4617 7.88612 29.4617C6.80378 29.4617 5.92458 28.5835 5.92458 27.5001Z"
          fill="currentColor"/>
    <path fill-rule="evenodd" clip-rule="evenodd"
          d="M1.96034 17C0.877995 17 -0.001202 16.1219 -0.00120195 15.0384C-0.00120191 13.955 0.877995 13.0769 1.96034 13.0769C3.04268 13.0769 3.92187 13.955 3.92187 15.0384C3.92187 16.1219 3.04268 17 1.96034 17Z"
          fill="currentColor"/>
    <path fill-rule="evenodd" clip-rule="evenodd"
          d="M7.88612 17C6.80378 17 5.92458 16.1219 5.92458 15.0384C5.92458 13.955 6.80378 13.0769 7.88612 13.0769C8.96846 13.0769 9.84766 13.955 9.84766 15.0384C9.84766 16.1219 8.96846 17 7.88612 17Z"
          fill="currentColor"/>
    <path fill-rule="evenodd" clip-rule="evenodd"
          d="M1.96034 36C0.877995 36 -0.001202 35.1219 -0.00120195 34.0384C-0.00120191 32.955 0.877995 32.0769 1.96034 32.0769C3.04268 32.0769 3.92187 32.955 3.92187 34.0384C3.92187 35.1219 3.04268 36 1.96034 36Z"
          fill="currentColor"/>
    <path fill-rule="evenodd" clip-rule="evenodd"
          d="M7.88612 36C6.80378 36 5.92458 35.1219 5.92458 34.0384C5.92458 32.955 6.80378 32.0769 7.88612 32.0769C8.96846 32.0769 9.84766 32.955 9.84766 34.0384C9.84766 35.1219 8.96846 36 7.88612 36Z"
          fill="currentColor"/>
</svg>
