<?xml version="1.0" encoding="utf-8"?>
<svg width="20" height="21" viewBox="0 0 20 21" fill="none" 
     xmlns="http://www.w3.org/2000/svg">
<path d="M4 18C4 18.275 3.77344 18.5 3.5 18.5H2.5C2.22656 18.5 2 18.275 2 18V3.5C2 2.94531 2.44531 2.5 3 2.5C3.55469 2.5 4 2.94531 4 3.5V18ZM16.8844 2.5C16.6855 2.5 16.4778 2.54219 16.28 2.63228C14.8522 3.28416 13.7937 3.50541 12.9113 3.50541C11.0375 3.50541 9.94844 2.50978 7.78937 2.50947C7.02812 2.50955 6.1125 2.65209 5 2.99219V13.9453C6 13.6333 6.87094 13.5047 7.65156 13.5047C9.9525 13.5047 11.5547 14.4978 13.8578 14.4978C14.855 14.4978 15.9834 14.3112 17.3297 13.7762C17.7531 13.6219 18 13.2625 18 12.8781V3.46031C18 2.84688 17.4781 2.5 16.8844 2.5Z" 
      fill="currentColor"/>
</svg>
