<?xml version="1.0" encoding="UTF-8"?>
<svg width="11" height="12" viewBox="0 0 11 12" fill="none" xmlns="http://www.w3.org/2000/svg">
    <path fill-rule="evenodd" clip-rule="evenodd"
          d="M9 4.95652H8.60883V3.52174C8.6088 1.57976 7.02907 0 5.08709 0C3.1451 0 1.56534 1.57976 1.56534 3.52174V4.95652H1.17391C0.526594 4.95652 0 5.48311 0 6.13043V10.8261C0 11.4734 0.526594 12 1.17391 12H9C9.64732 12 10.1739 11.4734 10.1739 10.8261V6.13043C10.1739 5.48311 9.64732 4.95652 9 4.95652ZM5.47826 8.79743V10.0435C5.47826 10.2596 5.30306 10.4348 5.08695 10.4348C4.87085 10.4348 4.69563 10.2596 4.69563 10.0435V8.79743C4.24085 8.63559 3.91343 8.2061 3.91303 7.69566C3.91355 7.04719 4.4385 6.52226 5.08695 6.52174C5.73539 6.52226 6.26034 7.04719 6.26086 7.69566C6.26044 8.2061 5.93302 8.63559 5.47826 8.79743ZM3.13055 3.52174V4.95652H7.04358V3.52174C7.04358 2.44261 6.1662 1.56523 5.08706 1.56523C4.00793 1.56523 3.13055 2.44261 3.13055 3.52174Z"
          fill="currentColor"/>
</svg>
