<svg width="12" height="14" viewBox="0 0 12 14" fill="none" xmlns="http://www.w3.org/2000/svg">
    <path d="M8.57143 12.25V13.3438C8.57143 13.7062 8.28362 14 7.92857 14H0.642857C0.287813 14 0 13.7062 0 13.3438V3.28125C0 2.91881 0.287813 2.625 0.642857 2.625H2.57143V10.7188C2.57143 11.5631 3.24431 12.25 4.07143 12.25H8.57143ZM8.57143 2.84375V0H4.07143C3.71638 0 3.42857 0.293809 3.42857 0.65625V10.7188C3.42857 11.0812 3.71638 11.375 4.07143 11.375H11.3571C11.7122 11.375 12 11.0812 12 10.7188V3.5H9.21429C8.86071 3.5 8.57143 3.20469 8.57143 2.84375ZM11.8117 1.9953L10.0454 0.192199C9.92486 0.0691366 9.76136 9.09989e-07 9.59087 0L9.42857 0V2.625H12V2.45932C12 2.28528 11.9323 2.11837 11.8117 1.9953Z"
          fill="currentColor"/>
</svg>
