<?xml version="1.0" encoding="UTF-8"?>
<svg width="17" height="17" viewBox="0 0 17 17" fill="none" xmlns="http://www.w3.org/2000/svg">
    <path d="M8.44215 1.01161C8.44215 0.733124 8.63148 0.5 8.93875 0.5C12.7781 0.5 15.8911 3.59495 15.8911 7.41194C15.8911 7.68966 15.6552 7.90565 15.3759 7.90565H8.44215V1.01161ZM0 8.89307C0 5.15013 2.79646 2.05334 6.39679 1.55685C6.71027 1.51797 6.95236 1.74538 6.95236 2.03081V9.38678L11.8097 14.2159C12.0177 14.4226 12.0021 14.7621 11.7631 14.9318C10.5465 15.7927 9.05669 16.2987 7.44896 16.2987C3.33651 16.2987 0 12.9847 0 8.89307ZM16.3381 9.38678C16.6236 9.38678 16.8533 9.62747 16.816 9.91135C16.577 11.6363 15.739 13.1698 14.5224 14.3023C14.3361 14.4504 14.0444 14.4627 13.8644 14.2838L8.93875 9.38678H16.3381Z" 
          fill="currentColor"/>
</svg>
