<?xml version="1.0" encoding="UTF-8"?>
<svg width="73px" height="72px" viewBox="0 0 73 72" version="1.1" xmlns="http://www.w3.org/2000/svg"
     xmlns:xlink="http://www.w3.org/1999/xlink">
    <!-- Generator: Sketch 59.1 (86144) - https://sketch.com -->
    <title>ico-phone</title>
    <desc>Created with Sketch.</desc>
    <defs>
        <circle id="path-1" cx="36.5158537" cy="36" r="36"></circle>
    </defs>
    <g id="0-Sign-in-&amp;-Register" stroke="none" stroke-width="1" fill="none" fill-rule="evenodd">
        <g id="0-2-1-Onboarding---Phone-Number" transform="translate(-647.000000, -280.000000)">
            <g id="card" transform="translate(473.000000, 232.000000)">
                <g id="ico-phone" transform="translate(173.625000, 48.000000)">
                    <mask id="mask-2" fill="white">
                        <use xlink:href="#path-1"></use>
                    </mask>
                    <use id="Oval" fill="#EAF0F6" xlink:href="#path-1"></use>
                    <g id="2080678" mask="url(#mask-2)" fill-rule="nonzero">
                        <g transform="translate(16.922104, 17.250000)">
                            <path d="M2.33789063,51.1831055 C1.56304688,50.5941797 0.820488281,49.9651758 0.111328125,49.3016602 L0.111328125,4.453125 C0.111328125,1.99388672 2.10521484,0 4.56445313,0 L34.6230469,0 C37.0822852,0 39.0761719,1.99388672 39.0761719,4.453125 L39.0761719,49.3016602 C38.3670117,49.9651758 37.6244531,50.5941797 36.8496094,51.1831055 L2.33789063,51.1831055 Z"
                                  id="Path" fill="#445EA0"></path>
                            <path d="M36.8496094,12.3574219 L36.8496094,51.1831055 C32.0602734,54.8324414 26.0797266,57 19.59375,57 C14.9892188,57 10.6407422,55.9078711 6.79101563,53.9685352 C6.02841797,53.5844531 5.28585938,53.1680859 4.56445312,52.7194336 C3.79628906,52.2418359 3.05373047,51.7297266 2.33789062,51.1831055 L2.33789062,12.3574219 C2.33789062,11.6805469 2.885625,11.1328125 3.5625,11.1328125 L35.625,11.1328125 C36.301875,11.1328125 36.8496094,11.6805469 36.8496094,12.3574219 Z"
                                  id="Path" fill="#69CDFF"></path>
                            <path d="M24.046875,8.90625 L15.140625,8.90625 C14.5257598,8.90625 14.0273438,8.40783398 14.0273438,7.79296875 C14.0273438,7.17810352 14.5257598,6.6796875 15.140625,6.6796875 L24.046875,6.6796875 C24.6617402,6.6796875 25.1601562,7.17810352 25.1601562,7.79296875 C25.1601562,8.40783398 24.6617402,8.90625 24.046875,8.90625 Z"
                                  id="Path" fill="#2E4C89"></path>
                            <path d="M18.4804688,7.79296875 C18.4804688,7.17810352 18.9788848,6.6796875 19.59375,6.6796875 L15.140625,6.6796875 C14.5257598,6.6796875 14.0273438,7.17810352 14.0273438,7.79296875 C14.0273438,8.40783398 14.5257598,8.90625 15.140625,8.90625 L19.59375,8.90625 C18.9788848,8.90625 18.4804688,8.40783398 18.4804688,7.79296875 Z"
                                  id="Path" fill="#293D7C"></path>
                            <circle id="Oval" fill="#2E4C89" cx="10.6875" cy="7.79296875" r="1.11328125"></circle>
                            <circle id="Oval" fill="#2E4C89" cx="19.59375" cy="3.33984375" r="1.11328125"></circle>
                            <path d="M6.79101562,22.5996094 L2.9505293,11.2974668 C2.58448242,11.5092129 2.33789062,11.9038711 2.33789062,12.3574219 L2.33789062,30.2987285 L6.79101562,43.4036074 L6.79101562,22.5996094 Z"
                                  id="Path" fill="#69CDFF"></path>
                            <path d="M4.56445313,4.61519594 C4.56445313,2.06645398 6.55833984,0 9.01757813,0 L4.56445313,0 C2.10521484,0 0.111328125,2.06645398 0.111328125,4.61519594 L0.111328125,51.0959881 C0.820488281,51.7836523 1.56304687,52.4355487 2.33789063,53.0459083 L4.56445313,53.0459083 L4.56445313,4.61519594 Z"
                                  id="Path" fill="#294173" opacity="0.4"></path>
                        </g>
                    </g>
                </g>
            </g>
        </g>
    </g>
</svg>
