<svg width="267" height="446" viewBox="0 0 267 446" fill="none" xmlns="http://www.w3.org/2000/svg">
    <g opacity="0.6">
        <g filter="url(#filter0_d)">
            <rect x="20" y="18" width="227" height="406" rx="10" fill="#C4C4C4"/>
            <rect x="21" y="19" width="225" height="404" rx="9" stroke="#939393" stroke-width="2"/>
        </g>
        <mask id="path-3-inside-1" fill="white">
            <path fill-rule="evenodd" clip-rule="evenodd"
                  d="M101 29H39C33.4772 29 29 33.4771 29 39V402C29 407.523 33.4772 412 39 412H228C233.523 412 238 407.523 238 402V39C238 33.4772 233.523 29 228 29H166V33C166 35.7614 163.761 38 161 38H106C103.239 38 101 35.7614 101 33V29Z"/>
        </mask>
        <path fill-rule="evenodd" clip-rule="evenodd"
              d="M101 29H39C33.4772 29 29 33.4771 29 39V402C29 407.523 33.4772 412 39 412H228C233.523 412 238 407.523 238 402V39C238 33.4772 233.523 29 228 29H166V33C166 35.7614 163.761 38 161 38H106C103.239 38 101 35.7614 101 33V29Z"
              fill="white"/>
        <path d="M101 29H103V27H101V29ZM166 29V27H164V29H166ZM39 31H101V27H39V31ZM31 39C31 34.5817 34.5817 31 39 31V27C32.3726 27 27 32.3726 27 39H31ZM31 402V39H27V402H31ZM39 410C34.5817 410 31 406.418 31 402H27C27 408.627 32.3726 414 39 414V410ZM228 410H39V414H228V410ZM236 402C236 406.418 232.418 410 228 410V414C234.627 414 240 408.627 240 402H236ZM236 39V402H240V39H236ZM228 31C232.418 31 236 34.5817 236 39H240C240 32.3726 234.627 27 228 27V31ZM166 31H228V27H166V31ZM164 29V33H168V29H164ZM164 33C164 34.6569 162.657 36 161 36V40C164.866 40 168 36.866 168 33H164ZM161 36H106V40H161V36ZM106 36C104.343 36 103 34.6569 103 33H99C99 36.866 102.134 40 106 40V36ZM103 33V29H99V33H103Z"
              fill="#939393" mask="url(#path-3-inside-1)"/>
        <line x1="123" y1="30" x2="157" y2="30" stroke="#939393" stroke-width="2"/>
        <circle cx="114" cy="30" r="3" stroke="#939393" stroke-width="2"/>
    </g>
    <rect x="41" y="355" width="187" height="48" fill="#EDEDED"/>
    <rect x="41" y="46" width="41" height="31" fill="#EDEDED"/>
    <rect x="88" y="46" width="140" height="31" fill="#EDEDED"/>
    <rect x="41" y="82" width="187" height="120" fill="#EDEDED"/>
    <rect x="41" y="208" width="187" height="67" fill="#EDEDED"/>
    <rect x="41" y="281" width="187" height="68" fill="#EDEDED"/>
    <defs>
        <filter id="filter0_d" x="0" y="0" width="267" height="446" filterUnits="userSpaceOnUse"
                color-interpolation-filters="sRGB">
            <feFlood flood-opacity="0" result="BackgroundImageFix"/>
            <feColorMatrix in="SourceAlpha" type="matrix" values="0 0 0 0 0 0 0 0 0 0 0 0 0 0 0 0 0 0 127 0"/>
            <feOffset dy="2"/>
            <feGaussianBlur stdDeviation="10"/>
            <feColorMatrix type="matrix" values="0 0 0 0 0 0 0 0 0 0 0 0 0 0 0 0 0 0 0.15 0"/>
            <feBlend mode="normal" in2="BackgroundImageFix" result="effect1_dropShadow"/>
            <feBlend mode="normal" in="SourceGraphic" in2="effect1_dropShadow" result="shape"/>
        </filter>
    </defs>
</svg>
