<?xml version="1.0" encoding="UTF-8"?>
<svg width="20" height="20" viewBox="0 0 20 20" fill="none" xmlns="http://www.w3.org/2000/svg">
    <path fill-rule="evenodd" clip-rule="evenodd"
          d="M17.043 2.95703C15.1562 1.07035 12.6602 0 10 0C4.50559 0 0 4.49672 0 10C0 15.5062 4.49512 20 10 20C15.4807 20 20 15.5239 20 10C20 7.3398 18.9297 4.84371 17.043 2.95703ZM10 17.6172C5.78961 17.6172 2.38281 14.2194 2.38281 10C2.38281 8.35937 2.89844 6.80077 3.84766 5.51171L14.4883 16.1406C13.1992 17.1016 11.6407 17.6172 10 17.6172ZM5.51172 3.84767L16.1407 14.4883C17.1016 13.1992 17.6172 11.6406 17.6172 10C17.6172 5.78067 14.2105 2.38282 10 2.38282C8.35938 2.38282 6.80086 2.89845 5.51172 3.84767Z"
          fill="currentColor"/>
</svg>

