<?xml version="1.0" encoding="UTF-8"?>
<svg width="18" height="18" viewBox="0 0 18 18" xmlns="http://www.w3.org/2000/svg">
    <path d="M9 0C4.02823 0 0 4.02823 0 9C0 13.9718 4.02823 18 9 18C13.9718 18 18 13.9718 18 9C18 4.02823 13.9718 0 9 0ZM14.1315 14.1315C12.7597 15.5032 10.9379 16.2581 9 16.2581C7.0621 16.2581 5.24032 15.5032 3.86855 14.1315C2.49677 12.7597 1.74194 10.9379 1.74194 9C1.74194 7.0621 2.49677 5.24032 3.86855 3.86855C5.24032 2.49677 7.0621 1.74194 9 1.74194C10.9379 1.74194 12.7597 2.49677 14.1315 3.86855C15.5032 5.24032 16.2581 7.0621 16.2581 9C16.2581 10.9379 15.5032 12.7597 14.1315 14.1315ZM11.9032 7.83871C12.5456 7.83871 13.0645 7.31976 13.0645 6.67742C13.0645 6.03508 12.5456 5.51613 11.9032 5.51613C11.2609 5.51613 10.7419 6.03508 10.7419 6.67742C10.7419 7.31976 11.2609 7.83871 11.9032 7.83871ZM6.09677 7.83871C6.73911 7.83871 7.25806 7.31976 7.25806 6.67742C7.25806 6.03508 6.73911 5.51613 6.09677 5.51613C5.45444 5.51613 4.93548 6.03508 4.93548 6.67742C4.93548 7.31976 5.45444 7.83871 6.09677 7.83871ZM13.1516 10.1613H4.84839C4.55081 10.1613 4.32218 10.4153 4.35847 10.7056C4.63064 12.854 6.49597 14.5161 8.75323 14.5161H9.24677C11.504 14.5161 13.3694 12.854 13.6415 10.7056C13.6778 10.4153 13.4492 10.1613 13.1516 10.1613Z"
          fill="currentColor"/>
</svg>
