<?xml version="1.0" encoding="UTF-8"?>
<svg width="21px" height="19px" viewBox="0 0 21 19" version="1.1" xmlns="http://www.w3.org/2000/svg"
     xmlns:xlink="http://www.w3.org/1999/xlink">
    <!-- Generator: sketchtool 58 (101010) - https://sketch.com -->
    <title>C8C66AEF-2AA4-4535-BCE6-6234BAB77A11</title>
    <desc>Created with sketchtool.</desc>
    <g id="2-Contacts" stroke="none" stroke-width="1" fill="none" fill-rule="evenodd">
        <g id="2-5-3-Contact---Dropdown---Users" transform="translate(-12.000000, -399.000000)" fill="#4882c7"
           fill-rule="nonzero">
            <g id="Group" transform="translate(1.754967, 2.225731)">
                <g id="ico-help" transform="translate(10.745033, 397.402269)">
                    <path d="M15.103142,4.24838066 C15.103142,4.84640483 14.6677704,5.21010272 14.349861,5.47700302 C14.2294622,5.57809668 14.0053595,5.76255589 14.0059577,5.83145619 C14.0081329,6.1017281 13.7908278,6.31756495 13.5205015,6.31756495 C13.519142,6.31756495 13.5177825,6.31756495 13.516423,6.31756495 C13.248,6.31756495 13.029281,6.10836254 13.0271057,5.83945015 C13.0228097,5.30940181 13.4096193,4.99198187 13.7204592,4.73100906 C13.9643565,4.52621148 14.12429,4.38210272 14.12429,4.25022961 C14.12429,3.98327492 13.9070937,3.76607855 13.640139,3.76607855 C13.3730755,3.76607855 13.1558248,3.98327492 13.1558248,4.25022961 C13.1558248,4.52055589 12.9367251,4.73965559 12.6663988,4.73965559 C12.3960725,4.73965559 12.1769728,4.52055589 12.1769728,4.25022961 C12.1769728,3.44354683 12.8332931,2.78722659 13.6400302,2.78722659 C14.4468218,2.78717221 15.103142,3.4416435 15.103142,4.24838066 Z M13.5299637,6.76935952 C13.2596375,6.76935952 13.0513595,6.98845921 13.0513595,7.2587855 L13.0513595,7.26253776 C13.0513595,7.53286405 13.2596918,7.7501148 13.5299637,7.7501148 C13.8002356,7.7501148 14.0193897,7.52911178 14.0193897,7.2587855 C14.0193897,6.98845921 13.80029,6.76935952 13.5299637,6.76935952 Z M3.66482175,10.1786465 C3.39449547,10.1786465 3.17539577,10.3977462 3.17539577,10.6680725 C3.17539577,10.9383988 3.39449547,11.1574985 3.66482175,11.1574985 L3.70560725,11.1574985 C3.97593353,11.1574985 4.19503323,10.9383988 4.19503323,10.6680725 C4.19503323,10.3977462 3.97593353,10.1786465 3.70560725,10.1786465 L3.66482175,10.1786465 Z M5.36579456,10.1786465 C5.09546828,10.1786465 4.87636858,10.3977462 4.87636858,10.6680725 C4.87636858,10.9383988 5.09546828,11.1574985 5.36579456,11.1574985 L5.40652568,11.1574985 C5.67685196,11.1574985 5.89595166,10.9383988 5.89595166,10.6680725 C5.89595166,10.3977462 5.67685196,10.1786465 5.40652568,10.1786465 L5.36579456,10.1786465 Z M19.7401813,2.36148036 L19.7401813,7.87029607 C19.7401813,9.17461631 18.6943323,10.2330272 17.3900121,10.2330272 L11.042864,10.2330272 C10.9187674,10.2330272 10.8165861,10.2323202 10.7310997,10.2305257 C10.6415347,10.2286767 10.540713,10.2279698 10.5013958,10.2323202 C10.4604471,10.2595106 10.3600604,10.3514683 10.2633172,10.4405982 C10.2249789,10.4758912 10.1815831,10.514719 10.1347613,10.5574622 L8.33900302,12.1942115 C8.19576435,12.3248882 7.9838429,12.358713 7.80645317,12.2805136 C7.62906344,12.2022598 7.50453172,12.0266103 7.50453172,11.8327432 L7.50453172,6.64390332 L2.37752266,6.64390332 C1.61282175,6.64390332 0.978851964,7.27053172 0.978851964,8.03512387 L0.978851964,13.5439396 C0.978851964,14.3085861 1.61287613,14.9097644 2.37752266,14.9097644 L9.46734743,14.9097644 C9.58943202,14.9097644 9.70363142,14.9658308 9.79379456,15.0481631 L11.2567976,16.3970211 L11.2567976,11.7453535 C11.2567976,11.4750272 11.4758973,11.2559275 11.7462236,11.2559275 C12.0165498,11.2559275 12.2356495,11.4750272 12.2356495,11.7453535 L12.2356495,17.5063323 C12.2356495,17.7001994 12.124713,17.8732387 11.9472689,17.9514924 C11.8838066,17.9794985 11.8200725,17.9905378 11.7533474,17.9905378 C11.6334924,17.9905378 11.5152689,17.9413233 11.4233112,17.8573595 L9.27761329,15.8885619 L2.37752266,15.8885619 C1.07314804,15.8885619 0,14.8482598 0,13.5438852 L0,8.03512387 C0,6.73080363 1.07314804,5.66505136 2.37752266,5.66505136 L7.50453172,5.66505136 L7.50453172,2.36148036 C7.50453172,1.05710574 8.58589124,0.00946223565 9.89026586,0.00946223565 L17.3900665,0.00946223565 C18.6943323,0.00946223565 19.7401813,1.05710574 19.7401813,2.36148036 Z M18.7613293,2.36148036 C18.7613293,1.59683384 18.1546042,0.988314199 17.3900121,0.988314199 L9.89026586,0.988314199 C9.12561934,0.988314199 8.48338369,1.59683384 8.48338369,2.36148036 L8.48338369,6.15904532 L8.48338369,10.723432 L9.46740181,9.83414502 C9.51297281,9.79254381 9.56403625,9.75447734 9.60128701,9.72010876 C10.0506344,9.30605438 10.1655952,9.23987311 10.75171,9.25194562 C10.8316495,9.25363142 10.9268701,9.25422961 11.042864,9.25422961 L17.3900121,9.25422961 C18.1546042,9.25422961 18.7613293,8.6349426 18.7613293,7.87035045 L18.7613293,2.36148036 Z"
                          id="Shape"></path>
                </g>
            </g>
        </g>
    </g>
</svg>
