<svg xmlns="http://www.w3.org/2000/svg" width="20" height="20" viewBox="0 0 20 20">
    <path fill="#00AFFF" fill-rule="nonzero"
          d="M3.6 0v5.6H1.2C.542 5.6 0 6.142 0 6.8v8.4c0 .658.542 1.2 1.2 1.2h2.4V20h12.8v-3.6h2.4c.658 0 1.2-.542 1.2-1.2V6.8c0-.658-.542-1.2-1.2-1.2h-2.4V0H3.6zm.8.8h11.2v4.8H4.4V.8zM1.2 6.4h17.6c.225 0 .4.175.4.4v8.4c0 .225-.175.4-.4.4h-2.4v-4.4H3.6v4.4H1.2a.395.395 0 0 1-.4-.4V6.8c0-.225.175-.4.4-.4zm16 1.2a.8.8 0 1 0 0 1.6.8.8 0 0 0 0-1.6zM4.4 12h11.2V16a.41.41 0 0 0 0 .087V19.2H4.4v-3.125a.406.406 0 0 0 0-.162V12zm1.525 1.6a.403.403 0 0 0 .075.8h8a.402.402 0 0 0 .352-.198.404.404 0 0 0 0-.404A.402.402 0 0 0 14 13.6H5.925zm0 1.6A.403.403 0 0 0 6 16h6.4a.402.402 0 0 0 .352-.198.404.404 0 0 0 0-.404.402.402 0 0 0-.352-.198H5.925zm0 1.6a.403.403 0 0 0 .075.8h8a.402.402 0 0 0 .352-.198.404.404 0 0 0 0-.404A.402.402 0 0 0 14 16.8H5.925z"/>
</svg>
