<svg width="20" height="20" viewBox="0 0 20 20" fill="none" xmlns="http://www.w3.org/2000/svg">
    <path fill-rule="evenodd" clip-rule="evenodd"
          d="M12.2 5.3C15.4 4.7 18.3 6.2 19.4 9.1C18.1 8.6 16.6 8.5 15.1 8.9C15.4 9.3 15.7 9.8 15.9 10.3C16 10.5 16 10.7 15.9 10.8L10.9 15.8C10.7 16 10.5 16 10.3 15.9C9.8 15.7 9.3 15.4 8.8 15.1C8.4 16.6 8.5 18.1 9 19.4C6.1 18.3 4.7 15.3 5.2 12.2C2.2 9.1 0.1 4.8 0 0.5C0 0.2 0.2 0 0.5 0C4.8 0.1 9.1 2.2 12.2 5.3ZM5.6 8.4C6.4 9.2 7.6 9.2 8.4 8.4C9.2 7.6 9.2 6.4 8.4 5.6C7.6 4.8 6.4 4.8 5.6 5.6C4.8 6.4 4.8 7.6 5.6 8.4Z"
          fill="currentColor"/>
    <path d="M19.7004 14.4L17.6004 12.3C17.2004 11.9 16.6004 11.9 16.2004 12.3C15.8004 12.7 15.8004 13.3 16.2004 13.7L18.3004 15.8C18.7004 16.2 19.3004 16.2 19.7004 15.8C20.1004 15.4 20.1004 14.8 19.7004 14.4Z"
          fill="currentColor"/>
    <path d="M15.8 18.2999L13.7 16.1999C13.3 15.7999 12.7 15.7999 12.3 16.1999C11.9 16.5999 11.9 17.1999 12.3 17.5999L14.4 19.6999C14.8 20.0999 15.4 20.0999 15.8 19.6999C16.2 19.2999 16.2 18.6999 15.8 18.2999Z"
          fill="currentColor"/>
    <path d="M18.5004 17.2L15.6004 14.3C15.2004 13.9 14.6004 13.9 14.2004 14.3C13.8004 14.7 13.8004 15.3 14.2004 15.7L17.1004 18.6C17.5004 19 18.1004 19 18.5004 18.6C18.9004 18.2 18.9004 17.6 18.5004 17.2Z"
          fill="currentColor"/>
</svg>
