<?xml version="1.0" encoding="utf-8"?>
<svg width="14.25" height="19" fill="none" viewBox="0 0 14.25 19" xmlns="http://www.w3.org/2000/svg">
  <path stroke="null" fill="currentColor" d="m8.2516,4.99858l0.06251,-4.99858l-7.42332,0c-0.49365,0 -0.8908,0.39696 -0.8908,0.89037l0,17.21387c0,0.49341 0.39715,0.89037 0.8908,0.89037l12.47117,0c0.49365,0 0.8908,-0.39696 0.8908,-0.89037l0,-12.16843l-5.04785,0c-0.48995,0 -0.95331,-0.44752 -0.95331,-0.93723zm5.74134,-1.10321l-3.63371,-3.63568c-0.16703,-0.16695 -0.39343,-0.25969 -0.63097,-0.25969l-0.22642,0l0,4.74865l4.75092,0l0,-0.22631c0,-0.23371 -0.09279,-0.46002 -0.25983,-0.62697z"/>
</svg>
