<?xml version="1.0" encoding="UTF-8"?>
<svg width="51px" height="51px" viewBox="0 0 51 51" version="1.1" xmlns="http://www.w3.org/2000/svg"
     xmlns:xlink="http://www.w3.org/1999/xlink">
    <!-- Generator: sketchtool 53.1 (72631) - https://sketchapp.com -->
    <title>B4EF3D0A-EE2A-4B7F-B840-9BD4AEEEF53E</title>
    <desc>Created with sketchtool.</desc>
    <g id="2-Prospect" stroke="none" stroke-width="1" fill="none" fill-rule="evenodd">
        <g id="2-1-1-Prospects---Add-Prospect---Import" transform="translate(-1025.000000, -357.000000)">
            <g id="content" transform="translate(133.000000, 169.500000)">
                <g id="3" transform="translate(734.000000, 127.500000)">
                    <g id="circle-question" transform="translate(158.333333, 60.875000)">
                        <path d="M25,50 C11.1932023,50 0,38.8074687 0,25 C0,11.1925313 11.1932023,0 25,0 C38.8067977,0 50,11.1925313 50,25 C50,38.8074687 38.8067977,50 25,50 Z"
                              id="Fill-5" fill="#4882C7"></path>
                        <g id="question-mark" transform="translate(15.000000, 15.000000)" fill="#FFFFFF"
                           fill-rule="nonzero">
                            <path d="M9.86652174,0.000869565217 C4.34413043,0.0747826087 -0.0723913043,4.61195652 0.00108695652,10.1345652 C0.075,15.6547826 4.61173913,20.0726087 10.133913,19.9991304 C15.6552174,19.9247826 20.0726087,15.3876087 19.9991304,9.86543478 C19.9252174,4.34478261 15.3882609,-0.072826087 9.86652174,0.000869565217 Z M9.83695652,16.0869565 L9.78173913,16.086087 C8.93130435,16.0608696 8.33173913,15.4343478 8.35586957,14.5965217 C8.37956522,13.7730435 8.99369565,13.1752174 9.81608696,13.1752174 L9.86543478,13.176087 C10.7395652,13.2019565 11.3323913,13.8221739 11.3078261,14.6841304 C11.2834783,15.51 10.678913,16.0869565 9.83695652,16.0869565 Z M13.4141304,8.98717391 C13.2141304,9.27130435 12.7743478,9.62413043 12.2202174,10.0558696 L11.61,10.4771739 C11.275,10.7376087 11.0728261,10.9826087 10.9969565,11.2236957 C10.9371739,11.4134783 10.9078261,11.4636957 10.9026087,11.8497826 L10.9017391,11.9478261 L8.57173913,11.9478261 L8.57847826,11.7506522 C8.60695652,10.9402174 8.62695652,10.4634783 8.96282609,10.0695652 C9.48978261,9.45086957 10.6521739,8.7023913 10.7015217,8.67065217 C10.8680435,8.54521739 11.0084783,8.4023913 11.1130435,8.24978261 C11.3576087,7.9126087 11.4658696,7.64717391 11.4658696,7.38630435 C11.4658696,7.02434783 11.3584783,6.68956522 11.146087,6.39152174 C10.9419565,6.10391304 10.5541304,5.95826087 9.99326087,5.95826087 C9.43695652,5.95826087 9.05608696,6.13478261 8.82826087,6.49695652 C8.59391304,6.86934783 8.47543478,7.26043478 8.47543478,7.66 L8.47543478,7.75934783 L6.07304348,7.75934783 L6.0773913,7.65565217 C6.13934783,6.18413043 6.66456522,5.12456522 7.63782609,4.50630435 C8.24934783,4.1126087 9.01021739,3.91304348 9.89804348,3.91304348 C11.0602174,3.91304348 12.0413043,4.19543478 12.8136957,4.7523913 C13.5963043,5.31673913 13.9932609,6.16195652 13.9932609,7.26456522 C13.9932609,7.88130435 13.7984783,8.46065217 13.4141304,8.98717391 Z"
                                  id="Shape"></path>
                        </g>
                    </g>
                </g>
            </g>
        </g>
    </g>
</svg>
