<svg width="36" height="36" viewBox="0 0 36 36" fill="none" xmlns="http://www.w3.org/2000/svg">
<path d="M22.503 8V15.3642L24.9592 16.9846C25.0239 17.0044 25.1643 17.0058 25.2291 16.9846L35.8001 9.51723C35.8001 8.63348 35.0133 8 34.5693 8H22.503Z" fill="#0072C6"/>
<path d="M22.5043 17.3927L24.7455 18.9415C25.0612 19.1749 25.4417 18.9415 25.4417 18.9415C25.0626 19.1749 35.8001 12 35.8001 12V24.9925C35.8001 26.4068 34.9001 27 33.8882 27H22.503V17.3927H22.5043Z" fill="#0072C6"/>
<path d="M10.7928 14C9.99425 14 9.35797 14.3678 8.88816 15.102C8.41835 15.8362 8.18274 16.8082 8.18274 18.018C8.18274 19.2458 8.41835 20.2164 8.88816 20.9298C9.35797 21.6447 9.9745 22 10.7364 22C11.5222 22 12.1458 21.653 12.6057 20.9589C13.0656 20.2648 13.297 19.3011 13.297 18.0691C13.297 16.7847 13.0741 15.785 12.6269 15.0702C12.1796 14.3567 11.5687 14 10.7928 14Z" fill="#0072C6"/>
<path fill="#0072C6" fill-rule="evenodd" clip-rule="evenodd" d="M0 31.6056V4.05634L21.48 0V36L0 31.6056ZM10.8215 24.2382C12.2822 24.2382 13.4656 23.6541 14.3734 22.4886C15.2811 21.323 15.7356 19.787 15.7342 17.8819C15.7342 16.0282 15.2963 14.5354 14.4205 13.4024C13.546 12.2693 12.3986 11.7041 10.9809 11.7041C9.48007 11.7041 8.27442 12.2963 7.36394 13.4794C6.45347 14.6625 5.99892 16.212 5.99892 18.128C5.99892 19.9425 6.44792 21.4136 7.34315 22.544C8.23977 23.673 9.39831 24.2382 10.8215 24.2382Z"/>
</svg>
