<?xml version="1.0" encoding="UTF-8"?>
<svg width="10" height="10" viewBox="0 0 10 10" fill="none" xmlns="http://www.w3.org/2000/svg">
    <path fill-rule="evenodd" clip-rule="evenodd"
          d="M1.70679 0.0419922H8.80623C9.24205 0.0419922 9.59505 0.44542 9.59505 0.943507V9.05715C9.59505 9.55523 9.24205 9.95866 8.80623 9.95866H1.70679C1.27097 9.95866 0.917969 9.55523 0.917969 9.05715V0.943507C0.917969 0.44542 1.27097 0.0419922 1.70679 0.0419922ZM2.89011 5.45104H7.62306C7.84078 5.45104 8.01748 5.2491 8.01748 5.00028C8.01748 4.75147 7.84078 4.54953 7.62306 4.54953H2.89011C2.67239 4.54953 2.4957 4.75147 2.4957 5.00028C2.4957 5.2491 2.67239 5.45104 2.89011 5.45104ZM7.62306 3.19738H2.89011C2.67239 3.19738 2.4957 2.99544 2.4957 2.74662C2.4957 2.4978 2.67239 2.29586 2.89011 2.29586H7.62306C7.84078 2.29586 8.01748 2.4978 8.01748 2.74662C8.01748 2.99544 7.84078 3.19738 7.62306 3.19738ZM2.89011 7.70491H7.62306C7.84078 7.70491 8.01748 7.50297 8.01748 7.25416C8.01748 7.00534 7.84078 6.8034 7.62306 6.8034H2.89011C2.67239 6.8034 2.4957 7.00534 2.4957 7.25416C2.4957 7.50297 2.67239 7.70491 2.89011 7.70491Z"
          fill="currentColor"/>
</svg>
