<?xml version="1.0" encoding="UTF-8"?>
<svg width="17px" height="18px" viewBox="0 0 17 18" version="1.1" xmlns="http://www.w3.org/2000/svg"
     xmlns:xlink="http://www.w3.org/1999/xlink">
    <!-- Generator: sketchtool 53.1 (72631) - https://sketchapp.com -->
    <title>4B42D080-D057-421B-B835-E17F920AD52A@1x</title>
    <desc>Created with sketchtool.</desc>
    <g id="2-Prospect" stroke="none" stroke-width="1" fill="none" fill-rule="evenodd">
        <g id="2-5-3-Prospect---Dropdown---Users" transform="translate(-14.000000, -119.000000)">
            <g id="icon-logout" transform="translate(14.000000, 120.000000)">
                <path d="M12.8827669,15.0773313 C12.8827669,15.4363313 12.5917669,15.7283313 12.2317669,15.7283313 L1.16176693,15.7283313 C0.802766934,15.7283313 0.510766934,15.4363313 0.510766934,15.0773313 L0.510766934,0.752331312 C0.510766934,0.392331312 0.802766934,0.100331312 1.16176693,0.100331312 L12.2317669,0.100331312 C12.5917669,0.100331312 12.8827669,0.392331312 12.8827669,0.752331312"
                      id="Stroke-8" stroke="#4882C7"></path>
                <polyline id="Stroke-10" stroke="#02A798" stroke-linecap="round"
                          points="12.5741669 4.36883131 16.1201669 7.91383131 12.5741669 11.4598313"></polyline>
                <path d="M5.72066693,7.91423131 L15.9486669,7.91423131" id="Stroke-12" stroke="#4882C7"
                      stroke-linecap="round"></path>
                <polygon id="Fill-14"
                         points="12.5575669 0.752131312 12.5575669 2.70513131 13.2075669 3.35613131 13.2075669 0.752131312"></polygon>
                <polygon id="Fill-16"
                         points="12.5575669 15.0773313 12.5575669 13.1233313 13.2075669 12.4733313 13.2075669 15.0773313"></polygon>
            </g>
        </g>
    </g>
</svg>
