<svg width="16" height="15" viewBox="0 0 16 15" fill="none" xmlns="http://www.w3.org/2000/svg">
    <path d="M15.7072 5.87738L14.2931 4.46332C14.1056 4.27582 13.8512 4.17051 13.5859 4.17051H12V1.6702C12 0.841759 11.3284 0.170197 10.5 0.170197H5.5C4.67156 0.170197 4 0.841759 4 1.6702V4.1702H2.41406C2.14875 4.1702 1.89469 4.27551 1.70687 4.46301L0.292812 5.87738C0.105312 6.06488 0 6.31926 0 6.58457V9.1702H4V8.6702C4 8.39395 4.22375 8.1702 4.5 8.1702H5.5C5.77625 8.1702 6 8.39395 6 8.6702V9.1702H10V8.6702C10 8.39395 10.2238 8.1702 10.5 8.1702H11.5C11.7762 8.1702 12 8.39395 12 8.6702V9.1702H16V6.58426C16 6.31926 15.8947 6.06488 15.7072 5.87738ZM10 4.1702H6V2.1702H10V4.1702ZM12 10.6702C12 10.9464 11.7762 11.1702 11.5 11.1702H10.5C10.2238 11.1702 10 10.9464 10 10.6702V10.1702H6V10.6702C6 10.9464 5.77625 11.1702 5.5 11.1702H4.5C4.22375 11.1702 4 10.9464 4 10.6702V10.1702H0V13.1702C0 13.7224 0.447812 14.1702 1 14.1702H15C15.5522 14.1702 16 13.7224 16 13.1702V10.1702H12V10.6702Z"
          fill="currentColor"/>
</svg>
