<?xml version="1.0" encoding="UTF-8"?>
<svg xmlns="http://www.w3.org/2000/svg" width="61" height="62" fill="none">
    <g>
        <path id="svg_1" stroke="white" fill="#88AABA"
              d="m60.4994,30.52381c0,16.5684 -13.4323,30 -29.9994,30c-16.5684,0 -30,-13.4316 -30,-30c0,-16.5684 13.4316,-30 30,-30c16.5671,0 29.9994,13.4316 29.9994,30z"
              clip-rule="evenodd" fill-rule="evenodd"/>
        <g id="svg_2">
            <path id="svg_3" fill="white"
                  d="m16.01645,34.228l5.676,0l0,-0.876l-4.728,0l0,-7.524l-0.948,0l0,8.4zm9.9885,0.144c1.872,0 3.252,-1.488 3.252,-3.24l0,-0.024c0,-1.752 -1.368,-3.216 -3.228,-3.216c-1.872,0 -3.24,1.488 -3.24,3.24l0,0.024c0,1.752 1.356,3.216 3.216,3.216zm0.024,-0.828c-1.308,0 -2.292,-1.08 -2.292,-2.412l0,-0.024c0,-1.308 0.924,-2.4 2.268,-2.4c1.308,0 2.304,1.092 2.304,2.424l0,0.024c0,1.308 -0.936,2.388 -2.28,2.388zm7.6498,2.628c0.984,0 1.812,-0.276 2.364,-0.828c0.504,-0.504 0.792,-1.236 0.792,-2.196l0,-5.124l-0.924,0l0,1.116c-0.504,-0.672 -1.26,-1.248 -2.424,-1.248c-1.476,0 -2.916,1.116 -2.916,2.928l0,0.024c0,1.788 1.428,2.904 2.916,2.904c1.14,0 1.896,-0.588 2.436,-1.308l0,0.732c0,1.452 -0.888,2.208 -2.256,2.208c-0.888,0 -1.68,-0.276 -2.388,-0.792l-0.42,0.72c0.828,0.576 1.788,0.864 2.82,0.864zm-0.012,-3.24c-1.152,0 -2.148,-0.864 -2.148,-2.112l0,-0.024c0,-1.272 0.972,-2.088 2.148,-2.088c1.176,0 2.28,0.828 2.28,2.1l0,0.024c0,1.248 -1.104,2.1 -2.28,2.1zm8.0648,1.44c1.872,0 3.252,-1.488 3.252,-3.24l0,-0.024c0,-1.752 -1.368,-3.216 -3.228,-3.216c-1.872,0 -3.24,1.488 -3.24,3.24l0,0.024c0,1.752 1.356,3.216 3.216,3.216zm0.024,-0.828c-1.308,0 -2.292,-1.08 -2.292,-2.412l0,-0.024c0,-1.308 0.924,-2.4 2.268,-2.4c1.308,0 2.304,1.092 2.304,2.424l0,0.024c0,1.308 -0.936,2.388 -2.28,2.388z"/>
        </g>
    </g>
</svg>
