<?xml version="1.0" encoding="UTF-8"?>
<svg width="20px" height="19px" viewBox="0 0 20 19" version="1.1" xmlns="http://www.w3.org/2000/svg"
     xmlns:xlink="http://www.w3.org/1999/xlink">
    <!-- Generator: sketchtool 53.2 (72643) - https://sketchapp.com -->
    <title>1BD0CF23-A6C3-42C3-9FBA-E503069E0A99</title>
    <desc>Created with sketchtool.</desc>
    <g id="1-Conversation---Mobile" stroke="none" stroke-width="1" fill="none" fill-rule="evenodd">
        <g id="1-3-0-Mobile---Conversation---Detail---Contact-Info" transform="translate(-317.000000, -42.000000)"
           fill="#FFFFFF" fill-rule="nonzero">
            <g id="ico-edit" transform="translate(317.823529, 42.000000)">
                <path d="M17.4877527,0.869738035 C16.3505975,-0.267417247 14.5069853,-0.267417247 13.3698299,0.869738035 L1.82589612,12.4136719 C1.74678309,12.4927849 1.68965989,12.5908548 1.65983456,12.6985294 L0.141773929,18.1790671 C0.0793428471,18.4037684 0.142784894,18.6443934 0.307582753,18.8094439 C0.472633288,18.9742417 0.713258288,19.0376838 0.937959559,18.9755055 L6.41849726,17.4571921 C6.52617186,17.4273667 6.62424171,17.3702436 6.70335481,17.2911305 L18.2470358,5.74694392 C19.3824219,4.60903035 19.3824219,2.76693476 18.2470358,1.62902112 L17.4877527,0.869738035 Z M3.23577667,12.8342601 L12.6835937,3.38619024 L15.7305836,6.43318015 L6.28251377,15.88125 L3.23577667,12.8342601 Z M2.62713696,14.0555836 L5.06144305,16.4901424 L1.69420956,17.4230699 L2.62713696,14.0555836 Z M17.3320542,4.8319623 L16.645818,5.51819853 L13.5985754,2.47095588 L14.2850643,1.78471965 C14.9167049,1.15307901 15.9408777,1.15307901 16.5725184,1.78471965 L17.3320542,2.54400274 C17.9626838,3.17640167 17.9626838,4.19981618 17.3320542,4.8319623 L17.3320542,4.8319623 Z"
                      id="Shape"></path>
            </g>
        </g>
    </g>
</svg>
