<?xml version="1.0" encoding="UTF-8"?>
<svg width="26px" height="26px" viewBox="0 0 26 26" version="1.1" xmlns="http://www.w3.org/2000/svg"
     xmlns:xlink="http://www.w3.org/1999/xlink">
    <!-- Generator: sketchtool 56.3 (101010) - https://sketch.com -->
    <title>C45C8386-EDB8-4F7D-B63C-D680F7A9A00D</title>
    <desc>Created with sketchtool.</desc>
    <g id="1-Conversation---Mobile" stroke="none" stroke-width="1" fill="none" fill-rule="evenodd">
        <path d="M3.25,5.41666667 L3.25,20.5833333 C3.25,21.775 4.21416667,22.75 5.41666667,22.75 L20.5833333,22.75 C21.775,22.75 22.75,21.775 22.75,20.5833333 L22.75,5.41666667 C22.75,4.225 21.775,3.25 20.5833333,3.25 L5.41666667,3.25 C4.21416667,3.25 3.25,4.225 3.25,5.41666667 Z M16.25,9.75 C16.25,11.5483333 14.7983333,13 13,13 C11.2016667,13 9.75,11.5483333 9.75,9.75 C9.75,7.95166667 11.2016667,6.5 13,6.5 C14.7983333,6.5 16.25,7.95166667 16.25,9.75 Z M6.5,18.4166667 C6.5,16.25 10.8333333,15.0583333 13,15.0583333 C15.1666667,15.0583333 19.5,16.25 19.5,18.4166667 L19.5,19.5 L6.5,19.5 L6.5,18.4166667 Z"
              id="Shape" fill="currentColor" fill-rule="nonzero"></path>
    </g>
</svg>
