<?xml version="1.0" encoding="UTF-8"?>
<svg xmlns="http://www.w3.org/2000/svg" viewBox="0 0 21 22" width="21px" height="22px">
    <path fill="currentColor" fill-rule="nonzero" stroke="currentColor" stroke-width=".5"
          d="M4.572 14.284a21.2 21.2 0 007.052 5.523c1.03.49 2.41 1.069 3.946 1.168.095.004.186.008.282.008 1.03 0 1.859-.356 2.534-1.089a.09.09 0 00.016-.02c.24-.29.514-.551.8-.828.194-.187.393-.381.583-.58.882-.92.882-2.087-.008-2.977L17.288 13c-.422-.439-.927-.67-1.457-.67s-1.04.231-1.474.666l-1.483 1.482a7.878 7.878 0 00-.41-.215 5.12 5.12 0 01-.455-.249c-1.35-.857-2.576-1.975-3.748-3.412-.592-.749-.99-1.378-1.267-2.02.39-.352.754-.72 1.106-1.081.124-.128.253-.257.38-.385.448-.447.688-.965.688-1.49 0-.527-.236-1.044-.687-1.491L7.247 2.9c-.145-.145-.282-.286-.422-.431a22.713 22.713 0 00-.841-.832C5.558 1.219 5.056 1 4.526 1c-.525 0-1.03.22-1.474.642L1.504 3.19a3.182 3.182 0 00-.949 2.038c-.078.99.104 2.041.576 3.312.725 1.967 1.818 3.793 3.441 5.744zm-3.006-8.97c.05-.55.26-1.01.658-1.407l1.54-1.54c.24-.232.506-.353.762-.353.253 0 .51.12.746.36.277.257.538.527.82.812.14.145.285.29.43.44l1.234 1.233c.257.257.39.518.39.775 0 .256-.133.517-.39.774-.128.128-.256.26-.385.39-.385.388-.745.757-1.143 1.109l-.02.02c-.344.344-.29.671-.207.92l.012.033c.319.766.762 1.495 1.453 2.364 1.243 1.532 2.551 2.72 3.992 3.636.178.116.369.207.547.298.165.083.319.162.455.249l.046.024c.136.07.269.104.401.104.332 0 .547-.211.617-.282l1.549-1.548c.24-.24.501-.369.758-.369.315 0 .571.195.733.369l2.497 2.492c.497.497.492 1.036-.013 1.561-.174.187-.356.365-.55.551-.29.282-.593.572-.866.899-.476.513-1.043.753-1.776.753-.07 0-.145-.004-.216-.008-1.358-.087-2.62-.617-3.569-1.068a20.14 20.14 0 01-6.712-5.259c-1.545-1.86-2.584-3.59-3.271-5.445-.427-1.139-.588-2.054-.522-2.886z"/>
</svg>
