<?xml version="1.0" encoding="UTF-8"?>
<svg width="17" height="4" viewBox="0 0 17 4" fill="currentColor" xmlns="http://www.w3.org/2000/svg">
    <path fill-rule="evenodd" clip-rule="evenodd"
          d="M3.92308 1.99992C3.92308 3.10345 3.04497 3.99985 1.96154 3.99985C0.878105 3.99985 0 3.10345 0 1.99992C0 0.896403 0.878105 0 1.96154 0C3.04497 0 3.92308 0.896403 3.92308 1.99992Z"
          fill="currentColor"/>
    <path fill-rule="evenodd" clip-rule="evenodd"
          d="M8.49962 3.99985C7.41619 3.99985 6.53809 3.10345 6.53809 1.99992C6.53809 0.896403 7.41619 0 8.49962 0C9.58306 0 10.4612 0.896403 10.4612 1.99992C10.4612 3.10345 9.58306 3.99985 8.49962 3.99985Z"
          fill="currentColor"/>
    <path fill-rule="evenodd" clip-rule="evenodd"
          d="M17.0002 1.99992C17.0002 3.10345 16.1221 3.99985 15.0387 3.99985C13.9553 3.99985 13.0771 3.10345 13.0771 1.99992C13.0771 0.896403 13.9553 0 15.0387 0C16.1221 0 17.0002 0.896403 17.0002 1.99992Z"
          fill="currentColor"/>
</svg>
