<?xml version="1.0" encoding="UTF-8"?>
<svg width="48" height="48" viewBox="0 0 48 48" fill="none" xmlns="http://www.w3.org/2000/svg">
    <path d="M38.2492 6.17148C38.2492 5.41376 37.6115 4.80005 36.8242 4.80005H31.1242C30.3369 4.80005 29.6992 5.41376 29.6992 6.17148V10.2858H38.2492V6.17148ZM6.8912 15.7706C6.66766 23.8149 1.50738 25.5618 1.19922 36.6858V40.4572C1.19922 41.9718 2.47548 43.2 4.04922 43.2H12.5992C14.173 43.2 15.4492 41.9718 15.4492 40.4572V26.7429H18.2992V13.0286H9.73497C8.1648 13.0286 6.93395 14.2603 6.8912 15.7706ZM41.1072 15.7706C41.0645 14.2603 39.8336 13.0286 38.2635 13.0286H29.6992V26.7429H32.5492V40.4572C32.5492 41.9718 33.8255 43.2 35.3992 43.2H43.9492C45.523 43.2 46.7992 41.9718 46.7992 40.4572V36.6858C46.4911 25.5618 41.3308 23.8149 41.1072 15.7706ZM16.8742 4.80005H11.1742C10.3869 4.80005 9.74922 5.41376 9.74922 6.17148V10.2858H18.2992V6.17148C18.2992 5.41376 17.6615 4.80005 16.8742 4.80005ZM21.1492 26.7429H26.8492V13.0286H21.1492V26.7429Z"
          fill="currentColor"/>
</svg>
