<?xml version="1.0" encoding="UTF-8"?>
<svg width="15" height="20" viewBox="0 0 15 21" fill="none" xmlns="http://www.w3.org/2000/svg">
    <path d="M11.2264 10.1875V11.2812C11.2264 11.5391 11.0159 11.75 10.7586 11.75H4.20991C3.95263 11.75 3.74214 11.5391 3.74214 11.2812V10.1875C3.74214 9.92969 3.95263 9.71875 4.20991 9.71875H10.7586C11.0159 9.71875 11.2264 9.92969 11.2264 10.1875ZM10.7586 13H4.20991C3.95263 13 3.74214 13.2109 3.74214 13.4688V14.5625C3.74214 14.8203 3.95263 15.0312 4.20991 15.0312H10.7586C11.0159 15.0312 11.2264 14.8203 11.2264 14.5625V13.4688C11.2264 13.2109 11.0159 13 10.7586 13ZM14.9686 5.65234V18.625C14.9686 19.6602 14.1305 20.5 13.0975 20.5H1.87107C0.838083 20.5 0 19.6602 0 18.625V2.375C0 1.33984 0.838083 0.5 1.87107 0.5H9.82701C10.3221 0.5 10.7976 0.699219 11.1485 1.05078L14.4189 4.32812C14.7698 4.67578 14.9686 5.15625 14.9686 5.65234ZM9.97904 2.52734V5.5H12.9455L9.97904 2.52734ZM13.0975 18.625V7.375H9.0435C8.52506 7.375 8.10797 6.95703 8.10797 6.4375V2.375H1.87107V18.625H13.0975Z"
          fill="currentColor"/>
</svg>
