<svg width="14" height="22" viewBox="0 0 14 22" fill="none" xmlns="http://www.w3.org/2000/svg">
    <path d="M11.9 0H2.1C0.940625 0 0 0.923828 0 2.0625V19.9375C0 21.0762 0.940625 22 2.1 22H11.9C13.0594 22 14 21.0762 14 19.9375V2.0625C14 0.923828 13.0594 0 11.9 0ZM7 20.625C6.22563 20.625 5.6 20.0105 5.6 19.25C5.6 18.4895 6.22563 17.875 7 17.875C7.77437 17.875 8.4 18.4895 8.4 19.25C8.4 20.0105 7.77437 20.625 7 20.625ZM11.9 15.9844C11.9 16.268 11.6637 16.5 11.375 16.5H2.625C2.33625 16.5 2.1 16.268 2.1 15.9844V2.57812C2.1 2.29453 2.33625 2.0625 2.625 2.0625H11.375C11.6637 2.0625 11.9 2.29453 11.9 2.57812V15.9844Z"
          fill="currentColor"/>
</svg>
