<svg xmlns="http://www.w3.org/2000/svg" width="20" height="21" viewBox="0 0 20 21">
    <path fill="#00AFFF" fill-rule="nonzero"
          d="M0 0v14.302h6.94a6.388 6.388 0 0 0-1.953 2.445c-.866 1.88-.824 3.693-.82 3.773v.053a.42.42 0 0 0 .41.427.42.42 0 0 0 .423-.414s.075-1.063.911-2.156c.796-1.038 2.312-2.065 5.209-2.169v1.893c.003.158.093.299.233.368s.306.054.43-.04l4.714-3.601a.424.424 0 0 0 .092-.579H20V0H0zm.833.841h18.334v.96c-.19.164-7.25 6.26-7.839 6.77l-.013.013c-.508.432-1.033.526-1.315.526-.283 0-.814-.095-1.328-.54-.59-.509-7.65-6.605-7.839-6.77V.842zm0 2.051L6.03 7.388.833 11.463V2.892zm18.334 0v8.57L13.97 7.389l5.196-4.496zM6.667 7.94c.485.419 1.36 1.18 1.471 1.275.684.59 1.403.736 1.862.736.459 0 1.178-.146 1.862-.736.11-.095.986-.856 1.471-1.275l5.834 4.575v.946H15.52l-3.737-2.866a.417.417 0 0 0-.313-.079.419.419 0 0 0-.351.421v1.985c-1.022.046-1.9.24-2.656.539a.43.43 0 0 0-.066 0H.833v-.946L6.667 7.94zm5.286 3.852l3.086 2.353a.396.396 0 0 0 .052.039l.026.026c.013.01.026.018.04.027a.396.396 0 0 0 .051.039h.013l.339.263-3.607 2.76v-1.498a.42.42 0 0 0-.417-.42c-3.115 0-4.93 1.054-5.976 2.22.062-.167.104-.33.182-.499.5-1.083 1.297-2.16 2.696-2.8.016-.006.035-.006.052-.013a.4.4 0 0 0 .104-.04.35.35 0 0 0 .078-.039c.77-.312 1.712-.5 2.864-.5a.42.42 0 0 0 .417-.42v-1.498z"/>
</svg>
