<svg width="24" height="16" viewBox="0 0 24 16" fill="none" xmlns="http://www.w3.org/2000/svg">
    <path d="M16.3013 0.666702H13.08C12.78 0.666702 12.4913 0.781244 12.27 0.987419L8.58375 4.42367C8.58 4.42749 8.57625 4.43513 8.5725 4.43895C7.95 5.03456 7.96125 5.98526 8.49375 6.57706C8.97 7.10777 9.97125 7.24904 10.5975 6.68015C10.6013 6.67633 10.6088 6.67633 10.6125 6.67251L13.6088 3.87769C13.8525 3.65243 14.235 3.6677 14.4563 3.91587C14.6813 4.16405 14.6625 4.54967 14.4188 4.77875L13.44 5.69127L18.9 10.2042C19.0088 10.2958 19.1063 10.3951 19.1963 10.4982V3.11026L17.1488 1.0256C16.9275 0.796516 16.62 0.666702 16.3013 0.666702ZM20.4 3.1179V11.6665C20.4 12.3423 20.9363 12.8883 21.6 12.8883H24V3.1179H20.4ZM22.2 11.6665C21.87 11.6665 21.6 11.3916 21.6 11.0556C21.6 10.7197 21.87 10.4448 22.2 10.4448C22.53 10.4448 22.8 10.7197 22.8 11.0556C22.8 11.3916 22.53 11.6665 22.2 11.6665ZM0 12.8845H2.4C3.06375 12.8845 3.6 12.3385 3.6 11.6627V3.1179H0V12.8845ZM1.8 10.4448C2.13 10.4448 2.4 10.7197 2.4 11.0556C2.4 11.3916 2.13 11.6665 1.8 11.6665C1.47 11.6665 1.2 11.3916 1.2 11.0556C1.2 10.7158 1.47 10.4448 1.8 10.4448ZM18.1462 11.1549L12.5475 6.52742L11.4225 7.57739C10.3088 8.61209 8.6025 8.51282 7.60875 7.4094C6.6 6.28689 6.67875 4.54967 7.77375 3.52643L10.8413 0.666702H7.69875C7.38 0.666702 7.07625 0.796516 6.85125 1.0256L4.8 3.11026V11.6589H5.48625L8.88 14.7859C9.9075 15.6373 11.4187 15.477 12.255 14.4308L12.2625 14.4232L12.9338 15.015C13.53 15.5113 14.4113 15.4159 14.895 14.8088L16.0725 13.335L16.275 13.503C16.7888 13.9268 17.5463 13.8505 17.9625 13.3236L18.3188 12.8769C18.7388 12.35 18.66 11.5825 18.1462 11.1549Z"
          fill="currentColor"/>
</svg>
