<svg width="18" height="14" viewBox="0 0 18 14" fill="none" xmlns="http://www.w3.org/2000/svg">
    <path d="M16.3125 0.25H1.6875C0.755508 0.25 0 1.00551 0 1.9375V12.0625C0 12.9945 0.755508 13.75 1.6875 13.75H16.3125C17.2445 13.75 18 12.9945 18 12.0625V1.9375C18 1.00551 17.2445 0.25 16.3125 0.25ZM16.1016 12.0625H1.89844C1.84249 12.0625 1.78884 12.0403 1.74928 12.0007C1.70972 11.9612 1.6875 11.9075 1.6875 11.8516V2.14844C1.6875 2.09249 1.70972 2.03884 1.74928 1.99928C1.78884 1.95972 1.84249 1.9375 1.89844 1.9375H16.1016C16.1575 1.9375 16.2112 1.95972 16.2507 1.99928C16.2903 2.03884 16.3125 2.09249 16.3125 2.14844V11.8516C16.3125 11.9075 16.2903 11.9612 16.2507 12.0007C16.2112 12.0403 16.1575 12.0625 16.1016 12.0625ZM4.5 3.34375C3.72336 3.34375 3.09375 3.97336 3.09375 4.75C3.09375 5.52664 3.72336 6.15625 4.5 6.15625C5.27664 6.15625 5.90625 5.52664 5.90625 4.75C5.90625 3.97336 5.27664 3.34375 4.5 3.34375ZM3.375 10.375H14.625V7.5625L11.5483 4.4858C11.3836 4.32106 11.1164 4.32106 10.9517 4.4858L6.75 8.6875L5.3608 7.2983C5.19606 7.13356 4.92894 7.13356 4.76416 7.2983L3.375 8.6875V10.375Z"
          fill="currentColor"/>
</svg>
