<?xml version="1.0" encoding="UTF-8"?>
<svg width="17" height="16" viewBox="0 0 17 16" fill="none" xmlns="http://www.w3.org/2000/svg">
    <path fill-rule="evenodd" clip-rule="evenodd"
          d="M1.54545 0H15.4545C16.3084 0 17 0.650909 17 1.45455V14.5455C17 15.3491 16.3084 16 15.4545 16H1.54545C0.691591 16 0 15.3491 0 14.5455V1.45455C0 0.650909 0.691591 0 1.54545 0ZM3.86376 8.72728H13.1365C13.563 8.72728 13.9092 8.40146 13.9092 8.00001C13.9092 7.59855 13.563 7.27274 13.1365 7.27274H3.86376C3.43722 7.27274 3.09103 7.59855 3.09103 8.00001C3.09103 8.40146 3.43722 8.72728 3.86376 8.72728ZM13.1365 5.0909H3.86376C3.43722 5.0909 3.09103 4.76508 3.09103 4.36362C3.09103 3.96217 3.43722 3.63635 3.86376 3.63635H13.1365C13.563 3.63635 13.9092 3.96217 13.9092 4.36362C13.9092 4.76508 13.563 5.0909 13.1365 5.0909ZM3.86376 12.3636H13.1365C13.563 12.3636 13.9092 12.0378 13.9092 11.6364C13.9092 11.2349 13.563 10.9091 13.1365 10.9091H3.86376C3.43722 10.9091 3.09103 11.2349 3.09103 11.6364C3.09103 12.0378 3.43722 12.3636 3.86376 12.3636Z"
          fill="currentColor"/>
</svg>
