<?xml version="1.0" encoding="UTF-8"?>
<svg width="12px" height="13px" viewBox="0 0 12 13" version="1.1" xmlns="http://www.w3.org/2000/svg">
    <g id="2-Prospect" stroke="none" stroke-width="1" fill="none" fill-rule="evenodd">
        <g id="2-1-0-Prospects---Add-Prospect" transform="translate(-1235.000000, -580.000000)" fill="#777">
            <g id="Pop-Up" transform="translate(940.000000, 0.000000)">
                <g id="form" transform="translate(30.000000, 100.530678)">
                    <g id="toggle" transform="translate(0.000000, 473.000000)">
                        <path d="M272.188642,12.5843329 C272.481397,12.1799266 272.628264,11.8783354 272.628264,11.4651163 C272.628264,10.6132191 271.999674,10.0022032 271.069517,10.0022032 C270.174608,10.0022032 269.580287,10.5446756 269.452023,11.372093 C269.442232,11.423011 269.469648,11.4572827 269.520561,11.4651163 L270.063969,11.5600979 C270.113903,11.5689106 270.148172,11.5424725 270.157963,11.4915545 C270.26077,10.9667075 270.571149,10.673929 271.052872,10.673929 C271.544386,10.673929 271.888055,10.9833537 271.888055,11.473929 C271.888055,11.7667075 271.78329,11.9645043 271.482702,12.3777234 L270.906984,13.1698898 C270.725849,13.420563 270.649478,13.6007344 270.649478,13.9444308 L270.649478,14.2979192 C270.649478,14.3498164 270.681789,14.3840881 270.73564,14.3840881 L271.303525,14.3840881 C271.354439,14.3840881 271.389687,14.3498164 271.389687,14.2979192 L271.389687,14.0227662 C271.389687,13.7299878 271.440601,13.6095471 271.612924,13.3764994 L272.188642,12.5843329 Z M271.431789,15.8646267 L271.431789,15.1243574 C271.431789,15.0724602 271.39654,15.0381885 271.345627,15.0381885 L270.69158,15.0381885 C270.639687,15.0381885 270.605418,15.0724602 270.605418,15.1243574 L270.605418,15.8646267 C270.605418,15.9155447 270.639687,15.9507956 270.69158,15.9507956 L271.345627,15.9507956 C271.39654,15.9507956 271.431789,15.9155447 271.431789,15.8646267 Z M270.999021,7 C274.307441,7 277,9.69179927 277,12.9995104 C277,16.3082007 274.307441,19 270.999021,19 C267.692559,19 265,16.3082007 265,12.9995104 C265,9.69179927 267.692559,7 270.999021,7 Z"
                              id="icon-question-mark">
                        </path>
                    </g>
                </g>
            </g>
        </g>
    </g>
</svg>
