<?xml version="1.0" encoding="UTF-8"?>
<svg width="14" height="14" viewBox="0 0 14 14" fill="none" xmlns="http://www.w3.org/2000/svg">
    <path d="M7 14C3.1339 14 0 10.8661 0 7C0 3.1339 3.1339 0 7 0C10.8661 0 14 3.1339 14 7C14 10.8661 10.8661 14 7 14ZM4.55 8.4V9.8H6.3V11.2H7.7V9.8H8.4C8.86413 9.8 9.30925 9.61563 9.63744 9.28744C9.96563 8.95925 10.15 8.51413 10.15 8.05C10.15 7.58587 9.96563 7.14075 9.63744 6.81256C9.30925 6.48437 8.86413 6.3 8.4 6.3H5.6C5.50717 6.3 5.41815 6.26313 5.35251 6.19749C5.28687 6.13185 5.25 6.04283 5.25 5.95C5.25 5.85717 5.28687 5.76815 5.35251 5.70251C5.41815 5.63687 5.50717 5.6 5.6 5.6H9.45V4.2H7.7V2.8H6.3V4.2H5.6C5.13587 4.2 4.69075 4.38437 4.36256 4.71256C4.03437 5.04075 3.85 5.48587 3.85 5.95C3.85 6.41413 4.03437 6.85925 4.36256 7.18744C4.69075 7.51563 5.13587 7.7 5.6 7.7H8.4C8.49283 7.7 8.58185 7.73687 8.64749 7.80251C8.71313 7.86815 8.75 7.95717 8.75 8.05C8.75 8.14283 8.71313 8.23185 8.64749 8.29749C8.58185 8.36313 8.49283 8.4 8.4 8.4H4.55Z" 
          fill="currentColor"/>
</svg>
