<svg width="18" height="19" viewBox="0 0 18 19" fill="none" xmlns="http://www.w3.org/2000/svg">
    <path d="M17.7701 11.833L16.1552 10.9403C16.3182 10.0983 16.3182 9.23462 16.1552 8.39269L17.7701 7.49995C17.9558 7.39834 18.0392 7.18785 17.9786 6.99189C17.5578 5.69995 16.8413 4.53141 15.905 3.55883C15.7609 3.41004 15.5259 3.37375 15.3439 3.47537L13.729 4.3681C13.0504 3.80924 12.2695 3.37738 11.4241 3.09432V1.31247C11.4241 1.10925 11.2763 0.931424 11.0678 0.887876C9.67651 0.590297 8.25113 0.604813 6.92811 0.887876C6.71961 0.931424 6.57176 1.10925 6.57176 1.31247V3.09795C5.73018 3.38464 4.94926 3.81649 4.26689 4.37173L2.65576 3.479C2.47001 3.37738 2.23876 3.41004 2.09471 3.56246C1.15835 4.53141 0.441872 5.69995 0.0210819 6.99551C-0.0433634 7.19148 0.0438274 7.40196 0.229582 7.50358L1.84451 8.39632C1.6815 9.23825 1.6815 10.102 1.84451 10.9439L0.229582 11.8366C0.0438274 11.9382 -0.0395725 12.1487 0.0210819 12.3447C0.441872 13.6366 1.15835 14.8052 2.09471 15.7777C2.23876 15.9265 2.4738 15.9628 2.65576 15.8612L4.27068 14.9685C4.94926 15.5273 5.73018 15.9592 6.57555 16.2423V18.0277C6.57555 18.231 6.7234 18.4088 6.9319 18.4523C8.32316 18.7499 9.74854 18.7354 11.0716 18.4523C11.2801 18.4088 11.4279 18.231 11.4279 18.0277V16.2423C12.2695 15.9556 13.0504 15.5237 13.7328 14.9685L15.3477 15.8612C15.5335 15.9628 15.7647 15.9302 15.9088 15.7777C16.8451 14.8088 17.5616 13.6402 17.9824 12.3447C18.0392 12.1451 17.9558 11.9346 17.7701 11.833ZM8.99794 12.5697C7.32615 12.5697 5.96522 11.2669 5.96522 9.66647C5.96522 8.06607 7.32615 6.76326 8.99794 6.76326C10.6697 6.76326 12.0307 8.06607 12.0307 9.66647C12.0307 11.2669 10.6697 12.5697 8.99794 12.5697Z"
          fill="currentColor"/>
</svg>
