<?xml version="1.0" encoding="UTF-8"?>
<svg xmlns="http://www.w3.org/2000/svg" viewBox="0 0 20 21" width="20px" height="21px">
    <path fill="currentColor" fill-rule="nonzero"
          d="M19.551 12.076V9l-2.805-.48A7.546 7.546 0 0016.144 7l1.635-2.44L15.7 2.388l-2.3 1.73a6.815 6.815 0 00-1.464-.636L11.448.558H8.51l-.453 2.913a6.78 6.78 0 00-1.466.63L4.297 2.385 2.22 4.56l1.613 2.415a7.554 7.554 0 00-.613 1.544l-2.771.483v3.075l2.766.513c.147.537.353 1.055.614 1.544l-1.636 2.394 2.076 2.176 2.31-1.694c.466.27.958.482 1.47.635l.463 2.914h2.936l.496-2.922a6.828 6.828 0 001.462-.641l2.325 1.708 2.077-2.177-1.66-2.413a7.48 7.48 0 00.6-1.522l2.803-.515zM10 13.358c-1.475 0-2.674-1.256-2.674-2.8 0-1.543 1.2-2.8 2.674-2.8s2.674 1.257 2.674 2.8c0 1.544-1.2 2.8-2.674 2.8z"/>
</svg>
