<?xml version="1.0" encoding="UTF-8"?>
<svg xmlns="http://www.w3.org/2000/svg" viewBox="0 0 19 7" width="19px" height="7px">
    <g fill="none" fill-rule="evenodd">
        <path d="M22.249 4.36L9.521 17.088-2.975 4.591 9.753-8.136z"/>
        <path fill="currentColor" fill-rule="nonzero"
              d="M4.105 6.613l1.498-1.196a1.51 1.51 0 00.573-1.167l.018-1.934a11.184 11.184 0 016.926-.063l-.018 1.944a1.45 1.45 0 00.552 1.156l1.466 1.159c.59.462 1.436.407 1.977-.134l.917-.918c.6-.599.609-1.587-.017-2.138-4.728-4.166-11.901-4.095-16.7.153-.636.563-.645 1.55-.057 2.14l.9.9c.521.531 1.367.57 1.965.098z"/>
    </g>
</svg>
