<?xml version="1.0" encoding="utf-8"?>
<svg width="57" height="76" viewBox="0 0 57 76" fill="none" xmlns="http://www.w3.org/2000/svg">
    <path d="M33.25 20.1875V0H3.5625C1.58828 0 0 1.58828 0 3.5625V72.4375C0 74.4117 1.58828 76 3.5625 76H53.4375C55.4117 76 57 74.4117 57 72.4375V23.75H36.8125C34.8531 23.75 33.25 22.1469 33.25 20.1875ZM42.9252 52.2515H33.25V64.1265C33.25 65.4387 32.1872 66.5015 30.875 66.5015H26.125C24.8128 66.5015 23.75 65.4387 23.75 64.1265V52.2515H14.0748C11.9552 52.2515 10.8968 49.685 12.402 48.1902L26.7143 33.9848C27.7014 33.0036 29.2956 33.0036 30.2827 33.9848L44.5951 48.1902C46.1017 49.685 45.0448 52.2515 42.9252 52.2515ZM55.9609 15.5859L41.4289 1.03906C40.7609 0.371094 39.8555 0 38.9055 0H38V19H57V18.0945C57 17.1594 56.6289 16.2539 55.9609 15.5859Z"
          fill="currentColor"/>
</svg>
