<svg width="18" height="14" viewBox="0 0 18 14" fill="none" xmlns="http://www.w3.org/2000/svg">
<path d="M13.7256 5.24985H9.45062V6.78123C9.45062 7.86687 8.54219 8.75015 7.42563 8.75015C6.30907 8.75015 5.40063 7.86687 5.40063 6.78123V3.45595L3.57532 4.52245C3.03251 4.83693 2.70064 5.40846 2.70064 6.02101V7.31448L0.450641 8.57787C0.0203289 8.81851 -0.128733 9.3545 0.121579 9.77289L2.37157 13.5631C2.61907 13.9814 3.17032 14.1236 3.60064 13.883L6.50875 12.2504H10.3506C11.3434 12.2504 12.1506 11.4656 12.1506 10.5003H12.6006C13.0984 10.5003 13.5006 10.1092 13.5006 9.62522V7.87507H13.7256C14.0997 7.87507 14.4006 7.58247 14.4006 7.21877V5.90616C14.4006 5.54245 14.0997 5.24985 13.7256 5.24985ZM17.8797 4.22711L15.6297 0.436945C15.3822 0.0185507 14.8309 -0.123649 14.4006 0.116997L11.4925 1.74956H8.61813C8.28063 1.74956 7.95156 1.84253 7.66469 2.01481L6.7225 2.58635C6.45813 2.74495 6.30063 3.02662 6.30063 3.32742V6.78123C6.30063 7.38558 6.80407 7.87507 7.42563 7.87507C8.04719 7.87507 8.55063 7.38558 8.55063 6.78123V4.37478H13.7256C14.5947 4.37478 15.3006 5.06116 15.3006 5.90616V6.68552L17.5506 5.42213C17.9809 5.17875 18.1272 4.6455 17.8797 4.22711V4.22711Z" fill="currentColor"/>
</svg>
