<svg width="603" height="560" viewBox="0 0 603 560" fill="none" xmlns="http://www.w3.org/2000/svg">
<g clip-path="url(#clip0_401_2)">
<path d="M40.9338 223.103L304.642 389.273C304.727 389.332 304.827 389.364 304.93 389.364C305.033 389.364 305.133 389.332 305.218 389.273L574.242 219.339C574.302 219.303 574.354 219.255 574.395 219.198C574.435 219.141 574.464 219.076 574.478 219.008C574.492 218.939 574.492 218.868 574.477 218.8C574.463 218.731 574.434 218.667 574.393 218.61C574.359 218.546 574.307 218.493 574.242 218.459L307.689 48.5823C307.605 48.5235 307.504 48.4919 307.401 48.4919C307.298 48.4919 307.198 48.5235 307.113 48.5823L40.9338 222.193C40.8742 222.238 40.8242 222.294 40.7871 222.358C40.75 222.423 40.7264 222.494 40.718 222.568C40.7095 222.642 40.7163 222.717 40.7378 222.788C40.7594 222.86 40.7954 222.926 40.8434 222.983C40.866 223.028 40.8967 223.069 40.9338 223.103ZM304.645 584.109C301.143 584.112 297.715 583.1 294.776 581.195L12.3558 399.324C12.2677 399.223 12.2191 399.093 12.2191 398.959C12.2191 398.825 12.2677 398.695 12.3558 398.594L24.3801 379.889C24.4811 379.801 24.6107 379.752 24.7448 379.752C24.8788 379.752 25.0084 379.801 25.1094 379.889L304.519 559.846C304.603 559.905 304.704 559.937 304.807 559.937C304.909 559.937 305.01 559.905 305.094 559.846L569.897 389.698C572.883 387.792 575.339 385.163 577.038 382.055C578.737 378.947 579.624 375.46 579.616 371.918V330.029C579.603 329.886 579.536 329.753 579.429 329.658C579.323 329.562 579.183 329.511 579.04 329.514C578.956 329.519 578.873 329.539 578.796 329.574L311.351 499.903C308.422 501.762 305.025 502.75 301.556 502.75C298.088 502.75 294.69 501.762 291.762 499.903L21.4991 327.962C14.9172 323.841 9.49099 318.114 5.73023 311.32C1.96947 304.526 -0.00234084 296.888 5.56204e-05 289.122V230.514C-0.011656 225.777 1.82656 221.222 5.12318 217.82L6.02727 217.091L11.2197 213.538L297.916 26.6945L298.217 26.5137C301.1 24.8685 304.377 24.0414 307.695 24.1216C311.013 24.2018 314.247 25.1862 317.046 26.9687L594.208 203.524C596.809 205.174 598.951 207.455 600.436 210.154C601.92 212.854 602.699 215.885 602.699 218.965C602.699 222.046 601.92 225.077 600.436 227.777C598.951 230.476 596.809 232.757 594.208 234.407L314.678 410.902C311.762 412.718 308.395 413.68 304.96 413.68C301.525 413.68 298.159 412.718 295.243 410.902L24.0818 240.184C23.9606 240.114 23.8166 240.093 23.6805 240.127C23.5443 240.161 23.4267 240.246 23.3525 240.365C23.3038 240.448 23.2827 240.544 23.2922 240.639V289.092C23.2778 292.919 24.2338 296.688 26.0709 300.046C27.9081 303.403 30.5665 306.24 33.7976 308.292L301.303 478.319C301.388 478.378 301.488 478.41 301.591 478.41C301.694 478.41 301.794 478.378 301.879 478.319L574.728 304.253C578.086 302.102 582.058 301.113 586.033 301.44C590.008 301.767 593.765 303.391 596.727 306.062C598.648 307.892 600.163 310.105 601.173 312.559C602.183 315.013 602.665 317.652 602.588 320.304V371.716C602.612 379.174 600.754 386.518 597.187 393.068C593.619 399.618 588.458 405.163 582.18 409.19L314.37 581.267C311.453 583.086 308.089 584.063 304.651 584.091L304.645 584.109Z" fill="url(#paint0_linear_401_2)"/>
</g>
<defs>
<linearGradient id="paint0_linear_401_2" x1="5.56204e-05" y1="4.19698e-06" x2="602.721" y2="4.19698e-06" gradientUnits="userSpaceOnUse">
<stop stop-color="#21BBC0"/>
<stop offset="0.34" stop-color="#20B9C0"/>
<stop offset="1" stop-color="#1387C9"/>
</linearGradient>
<clipPath id="clip0_401_2">
<rect width="602.721" height="560" fill="white"/>
</clipPath>
</defs>
</svg>
