<?xml version="1.0" encoding="UTF-8"?>
<svg width="20" height="19" viewBox="0 0 20 19" fill="none" xmlns="http://www.w3.org/2000/svg">
    <path d="M17.5877 10.1774C17.6095 9.98164 17.6225 9.79067 17.6225 9.59494C17.6356 8.53508 17.4704 7.47046 17.1183 6.46312C16.7618 5.45579 16.2011 4.51529 15.4708 3.76575C14.7448 3.00667 13.8624 2.44333 12.9409 2.06617C12.015 1.68902 11.0499 1.48851 10.0936 1.42644C9.13293 1.35483 8.19834 1.3978 7.24201 1.5458C6.29003 1.70334 5.3337 1.98979 4.44693 2.49107C3.5558 2.9828 2.73858 3.69892 2.14304 4.59645C1.55186 5.49398 1.17802 6.53473 1.00414 7.57549C0.912859 8.10064 0.865042 8.62579 0.852001 9.14617C0.843308 9.46603 0.847654 9.81932 0.886777 10.1774C0.317327 11.2515 0 12.3878 0 13.4763C0 17.391 4.13395 18.5559 9.23726 18.5559C13.0756 18.5559 16.3663 17.8971 17.7529 15.9063V10.5116C17.7008 10.4065 17.6486 10.292 17.5877 10.1774ZM15.7838 13.1994C15.6055 16.0686 14.0754 16.546 9.62849 17.0712C9.55024 17.0807 9.472 17.0855 9.39375 17.0855H9.08512C9.00687 17.0855 8.91993 17.0807 8.84169 17.0712C4.39911 16.5413 2.86464 16.0638 2.69076 13.1946C2.67772 13.0036 2.67337 12.7984 2.67337 12.5835C2.67337 12.3544 2.7038 12.13 2.769 11.9104C3.31672 9.95299 6.16832 8.4587 8.9634 8.4587C9.05469 8.4587 9.14598 8.4587 9.23726 8.46347C9.32855 8.4587 9.41983 8.4587 9.51112 8.4587C12.3062 8.4587 15.1578 9.95299 15.7055 11.9104C15.7707 12.13 15.8011 12.3544 15.8011 12.5835C15.8011 12.8031 15.7968 13.0084 15.7838 13.1994ZM9.23726 4.97838C6.27264 4.97838 3.63405 6.52519 1.94743 8.5876C1.97351 8.3298 2.01698 8.08154 2.06915 7.83329C2.26041 6.94531 2.62556 6.11939 3.15154 5.46534C3.66882 4.81128 4.33391 4.31955 5.07723 3.98536C6.56824 3.33608 8.30701 3.19286 9.99363 3.27402C11.6542 3.37428 13.3147 3.78485 14.571 4.89244C15.1969 5.43669 15.7186 6.13848 16.062 6.95486C16.2793 7.46091 16.4271 8.00993 16.514 8.5685C14.8274 6.51086 12.1932 4.97838 9.23726 4.97838Z"
          fill="currentColor"/>
    <path d="M7.86024 12.8574C7.68425 13.0558 7.41048 13.0434 7.25404 12.8201C6.87272 12.2868 6.2323 12.0077 5.63098 12.1069C5.235 12.1751 4.93679 12.3922 4.80968 12.7023C4.73635 12.8884 4.58969 13 4.42836 13C4.35992 13 4.29148 12.9752 4.23281 12.938C4.0226 12.8015 3.93949 12.4728 4.04704 12.2061C4.30614 11.5673 4.8439 11.1394 5.51854 11.0277C6.38874 10.8851 7.32248 11.3006 7.88957 12.0883C8.04601 12.3116 8.03623 12.6465 7.86024 12.8574Z"
          fill="currentColor"/>
    <path d="M14.2604 12.9013C14.0277 13.0351 13.7286 12.9256 13.6067 12.6761C13.4626 12.3658 13.1247 12.1529 12.6759 12.0859C11.9889 11.9886 11.2687 12.2624 10.8366 12.7857C10.7479 12.8891 10.6316 12.956 10.4986 12.9621H10.4765C10.3546 12.9621 10.2382 12.9134 10.1496 12.8222C9.95015 12.6214 9.93907 12.2867 10.1164 12.0677C10.759 11.2949 11.8061 10.8873 12.8034 11.0272C13.5679 11.1367 14.1773 11.5566 14.471 12.1833C14.5928 12.4449 14.4987 12.7613 14.2604 12.9013Z"
          fill="currentColor"/>
    <path d="M11.0167 15.1553C11.0167 15.3014 10.9669 15.4352 10.8727 15.5326C10.4128 16.0437 9.7591 16.3175 9.03333 16.3175C8.27432 16.3175 7.50978 16.0133 7.0721 15.5326C6.98346 15.4352 6.93359 15.3014 6.93359 15.1553C6.93359 15.0154 6.98346 14.8815 7.07764 14.7781C7.25493 14.5773 7.5818 14.5773 7.76463 14.7781C8.24108 15.3075 9.51533 15.5143 10.1857 14.7781C10.2799 14.6807 10.4018 14.626 10.5292 14.626C10.6622 14.626 10.784 14.6807 10.8727 14.7781C10.9669 14.8815 11.0167 15.0154 11.0167 15.1553Z"
          fill="currentColor"/>
    <path d="M20 10.3471V14.7931C20 15.2899 19.6145 15.6913 19.1374 15.6913H18.8627C18.4193 15.6913 18.0578 15.3451 18.0096 14.8985C18 14.8633 18 14.8282 18 14.7931V10.3471C18 9.97077 18.2217 9.64962 18.5349 9.51413V0.481728C18.5349 0.215774 18.747 0 19.0024 0C19.2578 0 19.4651 0.215774 19.4651 0.481728V9.51413C19.7783 9.64962 20 9.97077 20 10.3471Z"
          fill="currentColor"/>
</svg>
