<?xml version="1.0" encoding="UTF-8"?>
<svg width="14px" height="16px" viewBox="0 0 14 16" version="1.1" xmlns="http://www.w3.org/2000/svg"
     xmlns:xlink="http://www.w3.org/1999/xlink">
    <!-- Generator: sketchtool 53.1 (72631) - https://sketchapp.com -->
    <title>CEDE4EF3-4236-42FC-8872-7C09C64F046C</title>
    <desc>Created with sketchtool.</desc>
    <g id="2-Prospect" stroke="none" stroke-width="1" fill="none" fill-rule="evenodd">
        <g id="2-0-0-Prospects---All-Prospects" transform="translate(-307.000000, -16.000000)" fill="#FFFFFF"
           fill-rule="nonzero">
            <g id="HEADER-CAMPAIGN" transform="translate(0.000000, 0.000000)">
                <g id="prospect" transform="translate(307.027737, 16.000000)">
                    <g id="ico-prospect">
                        <g id="icon-prospect">
                            <path d="M13.7142857,0 L0,0 L0,13.7142857 L4.57142857,13.7142857 L6.85714286,16 L9.14285714,13.7142857 L13.7142857,13.7142857 L13.7142857,0 Z M6.85714286,2.28571429 C8.15238095,2.28571429 9.14285714,3.27619048 9.14285714,4.57142857 C9.14285714,5.86666667 8.15238095,6.85714286 6.85714286,6.85714286 C5.56190476,6.85714286 4.57142857,5.86666667 4.57142857,4.57142857 C4.57142857,3.27619048 5.56190476,2.28571429 6.85714286,2.28571429 Z M11.4285714,11.4285714 L2.28571429,11.4285714 C2.28571429,11.4285714 2.28571429,10.9828571 2.28571429,10.6666667 C2.28571429,9.46971429 4.35961905,8.38095238 6.85714286,8.38095238 C9.35466667,8.38095238 11.4285714,9.46971429 11.4285714,10.6666667 C11.4285714,10.9828571 11.4285714,11.4285714 11.4285714,11.4285714 Z"
                                  id="Shape"></path>
                        </g>
                    </g>
                </g>
            </g>
        </g>
    </g>
</svg>
