<svg width="10" height="20" viewBox="0 0 10 20" fill="none" xmlns="http://www.w3.org/2000/svg">
    <path d="M1.24996 4.99998V14.5833C1.24996 16.425 2.74163 17.9166 4.58329 17.9166C6.42496 17.9166 7.91663 16.425 7.91663 14.5833V4.16665C7.91663 3.01665 6.98329 2.08331 5.83329 2.08331C4.68329 2.08331 3.74996 3.01665 3.74996 4.16665V12.9166C3.74996 13.375 4.12496 13.75 4.58329 13.75C5.04163 13.75 5.41663 13.375 5.41663 12.9166V4.99998H6.66663V12.9166C6.66663 14.0666 5.73329 15 4.58329 15C3.43329 15 2.49996 14.0666 2.49996 12.9166V4.16665C2.49996 2.32498 3.99163 0.833313 5.83329 0.833313C7.67496 0.833313 9.16663 2.32498 9.16663 4.16665V14.5833C9.16663 17.1166 7.11663 19.1666 4.58329 19.1666C2.04996 19.1666 -4.1008e-05 17.1166 -4.1008e-05 14.5833V4.99998H1.24996Z"
          fill="currentColor"/>
</svg>
