<svg width="18" height="21" viewBox="0 0 18 21" fill="none" xmlns="http://www.w3.org/2000/svg">
    <path d="M12.6 12.4688C11.4469 12.4688 10.8924 13.125 9 13.125C7.10759 13.125 6.55714 12.4688 5.4 12.4688C2.41875 12.4688 0 14.9379 0 17.9812V19.0312C0 20.1182 0.863839 21 1.92857 21H16.0714C17.1362 21 18 20.1182 18 19.0312V17.9812C18 14.9379 15.5813 12.4688 12.6 12.4688ZM16.0714 19.0312H1.92857V17.9812C1.92857 16.0289 3.4875 14.4375 5.4 14.4375C5.98661 14.4375 6.93884 15.0938 9 15.0938C11.0772 15.0938 12.0094 14.4375 12.6 14.4375C14.5125 14.4375 16.0714 16.0289 16.0714 17.9812V19.0312ZM9 11.8125C12.1942 11.8125 14.7857 9.16699 14.7857 5.90625C14.7857 2.64551 12.1942 0 9 0C5.8058 0 3.21429 2.64551 3.21429 5.90625C3.21429 9.16699 5.8058 11.8125 9 11.8125ZM9 1.96875C11.1254 1.96875 12.8571 3.73652 12.8571 5.90625C12.8571 8.07598 11.1254 9.84375 9 9.84375C6.87455 9.84375 5.14286 8.07598 5.14286 5.90625C5.14286 3.73652 6.87455 1.96875 9 1.96875Z"
          fill="currentColor"/>
</svg>
