<?xml version="1.0" encoding="UTF-8"?>
<svg width="12px" height="12px" xmlns="http://www.w3.org/2000/svg" viewBox="0 0 12 12">
    <path fill="currentColor" fill-rule="nonzero"
          d="M9.355 0a1.051 1.051 0 00-.761.307L8.126.79l3.087 3.1.468-.482a1.085 1.085 0 000-1.536l-1.55-1.55A1.105 1.105 0 009.354 0zM7.599 1.214l-.732.702 3.22 3.218.746-.687-3.234-3.233zm-1.2 1.214L1.336 7.445a.456.456 0 00-.234.293L.019 11.409a.456.456 0 00.57.57l3.674-1.082a.457.457 0 00.365-.307l4.99-4.944-.688-.687-5.121 5.134-2.063.6-.44-.44.63-2.15 5.078-5.06-.615-.615zM7.51 3.554l-5.136 5.15.746.16.103.688 5.15-5.135-.863-.863z"/>
</svg>
