<?xml version="1.0" encoding="UTF-8"?>
<svg width="51px" height="51px" viewBox="0 0 51 51" version="1.1" xmlns="http://www.w3.org/2000/svg"
     xmlns:xlink="http://www.w3.org/1999/xlink">
    <!-- Generator: sketchtool 53.1 (72631) - https://sketchapp.com -->
    <title>DAB5C63F-688F-47A9-9B15-F7A97B8AA1C3</title>
    <desc>Created with sketchtool.</desc>
    <g id="2-Prospect" stroke="none" stroke-width="1" fill="none" fill-rule="evenodd">
        <g id="2-1-1-Prospects---Add-Prospect---Import" transform="translate(-291.000000, -357.000000)">
            <g id="content" transform="translate(133.000000, 169.500000)">
                <g id="1" transform="translate(0.000000, 127.500000)">
                    <g id="circle-youtube" transform="translate(158.333333, 60.875000)">
                        <path d="M25,50 C11.1932023,50 0,38.8074687 0,25 C0,11.1925313 11.1932023,0 25,0 C38.8067977,0 50,11.1925313 50,25 C50,38.8074687 38.8067977,50 25,50 Z"
                              id="Fill-5" fill="#4882C7"></path>
                        <g id="youtube-(1)" transform="translate(10.909091, 15.000000)" fill="#FFFFFF"
                           fill-rule="nonzero">
                            <path d="M27.0833636,1.78590909 C26.0660909,0.576636364 24.1879091,0.0833636364 20.601,0.0833636364 L7.58054545,0.0833636364 C3.91154545,0.0833636364 2.00154545,0.608454545 0.988090909,1.89590909 C0,3.15118182 0,5.00072727 0,7.56054545 L0,12.4395455 C0,17.3987273 1.17236364,19.9166364 7.58054545,19.9166364 L20.6010909,19.9166364 C23.7116364,19.9166364 25.4352727,19.4813636 26.5503636,18.4141818 C27.6939091,17.3198182 28.1818182,15.533 28.1818182,12.4395455 L28.1818182,7.56054545 C28.1818182,4.861 28.1053636,3.00054545 27.0833636,1.78590909 Z M18.0928182,10.6736364 L12.1802727,13.7637273 C12.0480909,13.8328182 11.9035455,13.8670909 11.7591818,13.8670909 C11.5957273,13.8670909 11.4326364,13.8230909 11.2881818,13.7356364 C11.0161818,13.5708182 10.8500909,13.276 10.8500909,12.958 L10.8500909,6.79763636 C10.8500909,6.48018182 11.0157273,6.18563636 11.2871818,6.02072727 C11.5587273,5.85581818 11.8964545,5.84454545 12.1781818,5.99090909 L18.0907273,9.06109091 C18.3915455,9.21727273 18.5804545,9.52781818 18.5809091,9.86663636 C18.5812727,10.2057273 18.3931818,10.5167273 18.0928182,10.6736364 Z"
                                  id="XMLID_823_"></path>
                        </g>
                    </g>
                </g>
            </g>
        </g>
    </g>
</svg>
