<?xml version="1.0" encoding="UTF-8"?>
<svg width="18" height="12" viewBox="0 0 18 12" fill="none"
     xmlns="http://www.w3.org/2000/svg">
    <path d="M13.0861 6.65841C12.834 5.14089 12.037 0.5 10.4907 0.5C10.1188 0.5 9.78705 0.656803 9.50786 0.870192C9.23848 1.0746 8.90913 1.18531 8.57041 1.18531C8.23169 1.18531 7.90233 1.0746 7.63296 0.870192C7.35377 0.658654 7.02198 0.5 6.65008 0.5C5.10405 0.5 4.30712 5.13983 4.0545 6.65788C5.08519 6.99079 6.54409 7.26923 8.57014 7.26923C10.5962 7.26923 12.0562 6.99132 13.0861 6.65841ZM16.8821 5.67529C16.8029 5.6223 16.708 5.5974 16.6129 5.6046C16.5177 5.61179 16.4277 5.65066 16.3574 5.71495C16.3309 5.73875 13.6673 8.11538 8.56988 8.11538C3.5009 8.11538 0.807289 5.73716 0.780194 5.71337C0.709731 5.65003 0.619992 5.612 0.525286 5.60534C0.430581 5.59868 0.336362 5.62378 0.257654 5.67663C0.178946 5.72948 0.120281 5.80704 0.0910127 5.89694C0.0617445 5.98684 0.0635587 6.08391 0.0961661 6.17267C0.115558 6.22608 2.15011 11.5 8.57014 11.5C14.9902 11.5 17.0247 6.22608 17.0441 6.17267C17.077 6.08371 17.079 5.98632 17.0496 5.89613C17.0203 5.80594 16.9614 5.72816 16.8823 5.67529H16.8821Z"
          fill="currentColor"/>
</svg>
