<svg width="20" height="20" viewBox="0 0 20 20" fill="none" xmlns="http://www.w3.org/2000/svg">
<path fill="currentColor" fill-rule="evenodd" clip-rule="evenodd" d="M19.2425 9.41544C18.8473 4.41358 14.418 0.633154 9.41585 1.02838C4.41375 1.4236 0.633137 5.8527 1.02838 10.8546C1.42362 15.8564 5.85294 19.6368 10.855 19.2416C12.5059 19.1112 14.0779 18.5391 15.4172 17.584L19.9621 18.5221L18.3219 14.1811C19.0549 12.7084 19.373 11.0662 19.2425 9.41544ZM7.9703 10.9666C7.9997 10.9187 8.02906 10.8709 8.05792 10.8229C8.08728 10.8367 8.11664 10.8505 8.14754 10.8627C8.14936 10.8763 8.15226 10.8901 8.15516 10.9039C8.1621 10.9371 8.16908 10.9704 8.16145 11.0006C8.00074 11.6611 8.1769 12.225 8.67913 12.6801C8.72744 12.7237 8.77575 12.7703 8.82453 12.8174C9.00356 12.99 9.18893 13.1688 9.40388 13.2302C10.4021 13.5168 11.5828 13.0601 12.1715 12.2357C12.2163 12.1729 12.306 12.1055 12.3755 12.1039C12.4296 12.1024 12.513 12.1928 12.5378 12.2587C12.7325 12.7675 13.1775 13.0954 13.621 13.218C14.4354 13.4448 15.2637 13.3176 15.8942 12.6648C16.3222 12.2235 16.7147 11.7607 16.9651 11.1753C17.2309 10.5563 17.4487 9.93106 17.4812 9.26602C17.4904 9.06879 17.4365 8.86939 17.3823 8.66879C17.3455 8.53273 17.3086 8.39612 17.2911 8.25926C17.2339 7.79649 16.8832 7.56817 16.5324 7.44098C15.667 7.12685 14.814 7.20806 14.0568 7.7781C13.9598 7.85114 13.8768 7.94267 13.7937 8.03417C13.706 8.1308 13.6184 8.2274 13.5144 8.30217C13.4464 8.3512 13.1914 8.28991 13.1605 8.22095C12.8932 7.60495 12.3786 7.36283 11.7605 7.28775C10.8348 7.17589 10.0606 7.49462 9.37297 8.2516C9.37694 8.16842 9.38251 8.09472 9.38757 8.02771C9.39826 7.88612 9.4067 7.77441 9.39306 7.66624C9.37761 7.53752 9.32043 7.31993 9.25089 7.30767C9.09173 7.28009 8.85839 7.29541 8.75485 7.39501C8.5416 7.59882 8.30053 7.84859 8.23563 8.11828C8.10973 8.64239 7.88311 9.12027 7.65657 9.59796C7.57446 9.77111 7.49236 9.94424 7.41507 10.1195C7.29153 10.3991 7.15573 10.6737 7.01998 10.9481C6.95706 11.0753 6.89416 11.2025 6.83249 11.3301C6.73513 11.1968 6.69341 11.0635 6.69032 10.9302C6.67796 10.4306 6.67641 9.92953 6.67641 9.42998C6.67592 9.26965 6.67956 9.10884 6.6832 8.94802C6.69091 8.60777 6.69862 8.26743 6.66714 7.93134C6.65014 7.74592 6.47707 7.51454 6.30863 7.42413C6.19119 7.35977 5.86204 7.44252 5.79713 7.55591L5.78179 7.58236C5.32636 8.36731 4.87028 9.1534 4.62425 10.0414C4.57366 10.2222 4.46272 10.3866 4.35169 10.5511C4.2999 10.6278 4.24809 10.7046 4.20238 10.7831L4.08648 10.7325C4.08133 10.7018 4.07515 10.6712 4.06897 10.6405C4.0566 10.5793 4.04424 10.518 4.04012 10.4567C4.00833 9.96455 3.97856 9.47245 3.94879 8.98034C3.92646 8.61126 3.90413 8.24218 3.88095 7.87311C3.85777 7.50687 3.61362 7.25557 3.31228 7.27396C2.89505 7.29847 2.90586 7.60035 2.92595 7.88077C2.94248 8.10791 2.96984 8.33466 2.9972 8.56142C3.02355 8.77981 3.0499 8.99821 3.06658 9.21698C3.128 10.0333 3.18416 10.8504 3.2403 11.6672C3.26467 12.0218 3.28903 12.3763 3.31383 12.7307C3.31491 12.7479 3.31295 12.7673 3.31102 12.7865C3.30744 12.8221 3.30395 12.8568 3.32001 12.8747C3.3529 12.9113 3.38507 12.9519 3.41745 12.9928C3.50981 13.1095 3.60394 13.2284 3.72179 13.2624C3.92268 13.3191 4.18538 13.3298 4.28428 13.0157C4.43417 12.5437 4.58716 12.0687 4.7865 11.6167C4.88359 11.3941 5.01736 11.1876 5.15111 10.9811C5.21534 10.882 5.27956 10.7828 5.33972 10.6819C5.41383 10.5566 5.48409 10.4297 5.5543 10.3029C5.58365 10.2499 5.61299 10.1969 5.6426 10.1441C5.73841 10.3279 5.75077 10.472 5.75232 10.616C5.75353 10.8104 5.75537 11.0047 5.75721 11.1991C5.76243 11.7494 5.76764 12.2994 5.7585 12.8487C5.75232 13.1597 5.84967 13.3651 6.17264 13.411C6.57133 13.4677 6.8294 13.3007 6.91903 12.9513C6.93911 12.8717 6.97311 12.792 7.01174 12.7184C7.25899 12.2541 7.50624 11.7898 7.75813 11.327C7.82421 11.2047 7.89736 11.0855 7.9703 10.9666ZM9.73303 9.30433C10.0962 8.69905 10.62 8.34967 11.6554 8.31443C12.4157 8.23781 12.6181 9.30126 12.272 9.96324C12.2681 9.97045 12.2641 9.97774 12.2601 9.98511C12.2349 10.031 12.2082 10.0799 12.2055 10.1287C12.1623 10.9118 11.6523 11.4404 11.1516 11.9553C10.5938 12.5284 9.46878 12.3798 9.19217 11.6519C9.03919 11.252 9.11027 10.7294 9.20608 10.2896C9.26205 10.0314 9.41852 9.79235 9.57372 9.55527C9.62847 9.47164 9.68306 9.38824 9.73303 9.30433ZM14.5683 12.3077C13.8188 12.3936 13.2471 11.7852 13.2702 10.9133C13.2258 10.62 13.3636 10.3566 13.5069 10.0825C13.553 9.99423 13.5997 9.90488 13.6411 9.81307C13.7972 9.46063 13.9718 9.14803 14.2314 8.86148C14.576 8.48145 15.6284 8.18724 16.0533 8.39717C16.4567 8.59638 16.6962 9.4024 16.503 9.84065C16.4213 10.0248 16.358 10.2167 16.2946 10.4089C16.261 10.511 16.2273 10.6131 16.1909 10.7141C15.9977 11.2504 15.7041 11.7193 15.208 12.0273C15.0103 12.1484 14.7908 12.2817 14.5683 12.3077Z"/>
</svg>
