<?xml version="1.0" encoding="UTF-8"?>
<svg width="20" height="20" viewBox="0 0 20 20" fill="none" xmlns="http://www.w3.org/2000/svg">
    <path fill-rule="evenodd" clip-rule="evenodd"
          d="M0 9.8043C0 4.41924 4.50745 0 10 0C15.4926 0 20 4.41924 20 9.8043C20 11.0282 19.7672 12.2022 19.3428 13.2858C18.4288 12.3285 17.1301 11.728 15.6953 11.728C12.9453 11.728 10.6953 13.934 10.6953 16.6301C10.6953 17.6894 11.0426 18.673 11.631 19.4768C11.0998 19.5635 10.5549 19.6086 10 19.6086C8.18726 19.6086 6.42258 19.1294 4.87869 18.2208L0 19.6086L1.41556 14.8254C0.488739 13.3117 0 11.5816 0 9.8043Z"
          fill="currentColor"/>
    <path fill-rule="evenodd" clip-rule="evenodd"
          d="M17.148 14.684C17.148 13.877 16.5186 13.2599 15.6956 13.2599C14.8725 13.2599 14.2431 13.877 14.2431 14.684C14.2431 15.4909 14.8725 16.108 15.6956 16.108C16.5186 16.108 17.148 15.4909 17.148 14.684ZM12.7905 18.4809C13.4199 19.3828 14.4851 19.9999 15.6955 19.9999C16.9058 19.9999 17.971 19.3828 18.6004 18.4809C18.6004 17.5316 16.6638 17.0095 15.6955 17.0095C14.7271 17.0095 12.7905 17.5316 12.7905 18.4809Z"
          fill="currentColor"/>
</svg>
