<?xml version="1.0" encoding="utf-8"?>
<svg width="46" height="45" viewBox="0 0 46 45" fill="none" xmlns="http://www.w3.org/2000/svg">
    <path fill-rule="evenodd" clip-rule="evenodd"
          d="M41.3216 0C43.8406 0 45.8788 2.11636 45.8788 4.70302L45.8994 43.002C45.8994 44.4882 44.1521 45.2336 43.1284 44.1825L36.7415 37.6241H4.6808C2.16175 37.6241 0.100708 35.5078 0.100708 32.9211V4.70302C0.100708 2.11636 2.16175 0 4.6808 0H41.3216ZM13.8388 30.5695H25.2891C26.5532 30.5695 27.5791 29.5161 27.5791 28.218C27.5791 26.92 26.5532 25.8665 25.2891 25.8665H13.8388C12.5747 25.8665 11.5488 26.92 11.5488 28.218C11.5488 29.5161 12.5747 30.5695 13.8388 30.5695ZM32.1592 21.1636H13.8388C12.5747 21.1636 11.5488 20.1101 11.5488 18.8121C11.5488 17.5141 12.5747 16.4606 13.8388 16.4606H32.1592C33.4233 16.4606 34.4493 17.5141 34.4493 18.8121C34.4493 20.1101 33.4233 21.1636 32.1592 21.1636ZM13.8388 11.7575H32.1592C33.4233 11.7575 34.4493 10.704 34.4493 9.40601C34.4493 8.10798 33.4233 7.0545 32.1592 7.0545H13.8388C12.5747 7.0545 11.5488 8.10798 11.5488 9.40601C11.5488 10.704 12.5747 11.7575 13.8388 11.7575Z"
          fill="url(#paint0_linear)"/>
    <defs>
        <linearGradient id="paint0_linear" x1="31.3293" y1="-10.8365" x2="-12.8401" y2="17.1573"
                        gradientUnits="userSpaceOnUse">
            <stop stop-color="#00AFFF"/>
            <stop offset="1" stop-color="#0068FF"/>
        </linearGradient>
    </defs>
</svg>
