<?xml version="1.0" encoding="UTF-8"?>
<svg width="51px" height="51px" viewBox="0 0 51 51" version="1.1" xmlns="http://www.w3.org/2000/svg"
     xmlns:xlink="http://www.w3.org/1999/xlink">
    <!-- Generator: sketchtool 53.1 (72631) - https://sketchapp.com -->
    <title>B0A014E9-9D99-45F5-9266-1AF8F0D3DA3C</title>
    <desc>Created with sketchtool.</desc>
    <g id="2-Prospect" stroke="none" stroke-width="1" fill="none" fill-rule="evenodd">
        <g id="2-1-1-Prospects---Add-Prospect---Import" transform="translate(-657.000000, -357.000000)">
            <g id="content" transform="translate(133.000000, 169.500000)">
                <g id="2" transform="translate(366.500000, 127.500000)">
                    <g id="circle-download" transform="translate(158.333333, 60.875000)">
                        <path d="M25,50 C11.1932023,50 0,38.8074687 0,25 C0,11.1925313 11.1932023,0 25,0 C38.8067977,0 50,11.1925313 50,25 C50,38.8074687 38.8067977,50 25,50 Z"
                              id="Fill-5" fill="#4882C7"></path>
                        <g id="cloud-download" transform="translate(10.714286, 15.000000)" fill="#FFFFFF"
                           fill-rule="nonzero">
                            <path d="M23.0952381,7.14285714 C22.2619048,3.0952381 18.6904762,0 14.2857143,0 C10.8333333,0 7.85714286,1.9047619 6.42857143,4.76190476 C2.73809524,5.23809524 0,8.21428571 0,11.9047619 C0,15.8333333 3.21428571,19.047619 7.14285714,19.047619 L22.6190476,19.047619 C25.952381,19.047619 28.5714286,16.4285714 28.5714286,13.0952381 C28.5714286,10 26.0714286,7.38095238 23.0952381,7.14285714 Z M20.2380952,10.7142857 L14.2857143,16.6666667 L8.33333333,10.7142857 L11.9047619,10.7142857 L11.9047619,5.95238095 L16.6666667,5.95238095 L16.6666667,10.7142857 L20.2380952,10.7142857 Z"
                                  id="Shape"></path>
                        </g>
                    </g>
                </g>
            </g>
        </g>
    </g>
</svg>
