<svg width="20" height="20" viewBox="0 0 20 20" fill="none" xmlns="http://www.w3.org/2000/svg">
    <path fill-rule="evenodd" clip-rule="evenodd"
          d="M10 20C15.5228 20 20 15.5228 20 10C20 4.47715 15.5228 0 10 0C4.47715 0 0 4.47715 0 10C0 15.5228 4.47715 20 10 20Z"
          fill="#8D5B99"/>
    <path d="M11.3517 5.99085L10.9793 5.88876C10.9313 5.87278 10.8841 5.8778 10.8382 5.9038C10.7921 5.92982 10.761 5.96887 10.7451 6.02091L8.50522 13.7732C8.48924 13.8253 8.49424 13.8744 8.52026 13.9204C8.54628 13.9664 8.58525 13.9974 8.63737 14.0134L9.00967 14.1156C9.0577 14.1317 9.10475 14.1266 9.15079 14.1006C9.19686 14.0744 9.2279 14.0355 9.24386 13.9836L11.4838 6.23111C11.4997 6.17907 11.4948 6.12998 11.4687 6.0839C11.4427 6.03784 11.4037 6.00682 11.3517 5.99085Z"
          fill="white"/>
    <path d="M7.99491 7.50433C7.99491 7.4523 7.97486 7.40621 7.93484 7.36621L7.63456 7.06595C7.59453 7.02592 7.54847 7.00586 7.49644 7.00586C7.4444 7.00586 7.39832 7.02595 7.35832 7.06595L4.56007 9.8642C4.51998 9.90422 4.5 9.95028 4.5 10.0023C4.5 10.0544 4.52004 10.1004 4.56007 10.1404L7.3583 12.9387C7.3983 12.9788 7.4443 12.9987 7.49642 12.9987C7.54854 12.9987 7.59453 12.9787 7.63454 12.9387L7.93482 12.6386C7.97484 12.5986 7.99489 12.5525 7.99489 12.5004C7.99489 12.4484 7.97484 12.4024 7.93482 12.3624L5.57491 10.0023L7.93484 7.64245C7.97493 7.60245 7.99491 7.55636 7.99491 7.50433Z"
          fill="white"/>
    <path d="M15.4288 9.8642L12.6305 7.06595C12.5905 7.02595 12.5444 7.00586 12.4924 7.00586C12.4403 7.00586 12.3944 7.02595 12.3543 7.06595L12.0541 7.36619C12.0141 7.40621 11.9941 7.45221 11.9941 7.50431C11.9941 7.55641 12.0141 7.60243 12.0541 7.64243L14.4141 10.0024L12.0541 12.3624C12.0141 12.4024 11.9941 12.4485 11.9941 12.5005C11.9941 12.5526 12.0141 12.5986 12.0541 12.6386L12.3543 12.9387C12.3944 12.9788 12.4403 12.9988 12.4924 12.9988C12.5444 12.9988 12.5905 12.9788 12.6305 12.9387L15.4288 10.1405C15.4688 10.1005 15.4888 10.0544 15.4888 10.0023C15.4888 9.95026 15.4688 9.9042 15.4288 9.8642Z"
          fill="white"/>
</svg>
