<?xml version="1.0" encoding="UTF-8"?>
<svg width="58" height="58" viewBox="0 0 58 58" fill="none" xmlns="http://www.w3.org/2000/svg">
    <path fill-rule="evenodd" clip-rule="evenodd"
          d="M29 58C45.0163 58 58 45.0163 58 29C58 12.9837 45.0163 0 29 0C12.9837 0 0 12.9837 0 29C0 45.0163 12.9837 58 29 58Z"
          fill="url(#paint0_linear)"/>
    <path fill-rule="evenodd" clip-rule="evenodd"
          d="M31.1 15.9381C32.3554 15.2119 33.2 13.8546 33.2 12.3C33.2 9.9804 31.3196 8.1 29 8.1C26.6804 8.1 24.8 9.9804 24.8 12.3C24.8 13.8546 25.6446 15.2119 26.9 15.9381V18.6H19.55C18.8605 18.5998 18.1777 18.7354 17.5406 18.9992C16.9036 19.2629 16.3247 19.6496 15.8372 20.1372C15.3496 20.6247 14.9629 21.2036 14.6992 21.8406C14.4354 22.4777 14.2998 23.1605 14.3 23.85V41.7C14.3011 42.8136 14.744 43.8812 15.5314 44.6686C16.3188 45.456 17.3864 45.8989 18.5 45.9H39.5C40.6136 45.8989 41.6812 45.456 42.4686 44.6686C43.256 43.8812 43.6989 42.8136 43.7 41.7V23.85C43.7002 23.1605 43.5646 22.4777 43.3008 21.8406C43.0371 21.2036 42.6504 20.6247 42.1628 20.1372C41.6753 19.6496 41.0964 19.2629 40.4594 18.9992C39.8223 18.7354 39.1395 18.5998 38.45 18.6H31.1V15.9381ZM12.2 27H10.1C9.82413 26.9997 9.55091 27.0538 9.29597 27.1592C9.04104 27.2646 8.80941 27.4193 8.61434 27.6143C8.41927 27.8094 8.2646 28.041 8.15918 28.296C8.05376 28.5509 7.99967 28.8241 8 29.1V37.5C7.99967 37.7759 8.05376 38.0491 8.15918 38.304C8.2646 38.559 8.41927 38.7906 8.61434 38.9857C8.80941 39.1807 9.04104 39.3354 9.29597 39.4408C9.55091 39.5462 9.82413 39.6003 10.1 39.6H12.2V27ZM24.8826 27.6416C25.171 28.0733 25.325 28.5808 25.325 29.1C25.325 29.4447 25.2571 29.7861 25.1252 30.1046C24.9933 30.4231 24.8 30.7125 24.5562 30.9562C24.3125 31.2 24.0231 31.3933 23.7046 31.5252C23.3861 31.6571 23.0447 31.725 22.7 31.725C22.1808 31.725 21.6733 31.571 21.2416 31.2826C20.8099 30.9942 20.4735 30.5842 20.2748 30.1045C20.0761 29.6249 20.0242 29.0971 20.1254 28.5879C20.2267 28.0787 20.4767 27.611 20.8438 27.2438C21.211 26.8767 21.6787 26.6267 22.1879 26.5254C22.6971 26.4242 23.2249 26.4761 23.7045 26.6748C24.1842 26.8735 24.5942 27.2099 24.8826 27.6416ZM20.6 37.5H37.4826V39.6H20.6V37.5ZM37.4826 27.6416C37.771 28.0733 37.925 28.5808 37.925 29.1C37.925 29.4447 37.8571 29.7861 37.7252 30.1046C37.5933 30.4231 37.4 30.7125 37.1562 30.9562C36.9125 31.2 36.6231 31.3933 36.3046 31.5252C35.9861 31.6571 35.6447 31.725 35.3 31.725C34.7808 31.725 34.2733 31.571 33.8416 31.2826C33.41 30.9942 33.0735 30.5842 32.8748 30.1045C32.6761 29.6249 32.6242 29.0971 32.7254 28.5879C32.8267 28.0787 33.0767 27.611 33.4438 27.2438C33.811 26.8767 34.2787 26.6267 34.7879 26.5254C35.2971 26.4242 35.8249 26.4761 36.3045 26.6748C36.7842 26.8735 37.1942 27.2099 37.4826 27.6416ZM50 37.5V29.1C50.0003 28.8241 49.9462 28.5509 49.8408 28.296C49.7354 28.041 49.5807 27.8094 49.3857 27.6143C49.1906 27.4193 48.959 27.2646 48.704 27.1592C48.4491 27.0538 48.1759 26.9997 47.9 27H45.8V39.6H47.9C48.1759 39.6003 48.4491 39.5462 48.704 39.4408C48.959 39.3354 49.1906 39.1807 49.3857 38.9857C49.5807 38.7906 49.7354 38.559 49.8408 38.304C49.9462 38.0491 50.0003 37.7759 50 37.5Z"
          fill="white"/>
    <defs>
        <linearGradient id="paint0_linear" x1="38.6667" y1="-5.71212" x2="-2.88565e-06" y2="22.4091"
                        gradientUnits="userSpaceOnUse">
            <stop stop-color="#999999"/>
            <stop offset="1" stop-color="#555555"/>
        </linearGradient>
    </defs>
</svg>
