<svg width="20"
     height="20"
     viewBox="0 0 20 20"
     fill="currentColor"
     xmlns="http://www.w3.org/2000/svg">
    <path fill-rule="evenodd"
          clip-rule="evenodd"
          d="M13.1521 10.2183C13.1613 10.1187 13.166 10.0179 13.166 9.91602C13.166 8.12109 11.7109 6.66602 9.91602 6.66602C9.81411 6.66602 9.71329 6.67071 9.61378 6.67988L13.1521 10.2183ZM7.05822 8.36697C6.80809 8.82745 6.66602 9.35514 6.66602 9.91602C6.66602 11.7109 8.12109 13.166 9.91602 13.166C10.4769 13.166 11.0046 13.0239 11.4651 12.7738L10.3122 11.621C10.1849 11.6504 10.0523 11.666 9.91602 11.666C8.94952 11.666 8.16602 10.8825 8.16602 9.91602C8.16602 9.77975 8.18159 9.64711 8.21106 9.5198L7.05822 8.36697Z"
          fill="currentColor" />
    <path fill-rule="evenodd"
          clip-rule="evenodd"
          d="M16.3789 13.4235C17.2115 12.8263 17.9047 12.2124 18.4204 11.7137L18.4533 11.682L18.4533 11.6819C18.6834 11.4596 18.9194 11.2316 19.088 10.9995C19.2926 10.7178 19.4252 10.3983 19.4252 10C19.4252 9.60174 19.2926 9.28219 19.088 9.00052C18.9194 8.76838 18.6834 8.54036 18.4533 8.31807L18.4533 8.31804L18.4204 8.28626C16.8712 6.78835 13.7202 4.25 10.0007 4.25C9.15303 4.25 8.33489 4.38184 7.55851 4.60315L8.80907 5.85371C9.1995 5.78668 9.59742 5.75 10.0007 5.75C13.0928 5.75 15.8697 7.90657 17.3777 9.36463C17.6549 9.63259 17.7923 9.76911 17.8744 9.88206C17.9255 9.95251 17.9254 9.97207 17.9252 9.99584L17.9252 10L17.9252 10.0042C17.9254 10.0279 17.9255 10.0475 17.8744 10.1179C17.7923 10.2309 17.6549 10.3674 17.3777 10.6354C16.8353 11.1598 16.1287 11.7747 15.3023 12.347L16.3789 13.4235ZM5.72139 7.00868C4.45072 7.73039 3.3783 8.63497 2.62365 9.36463C2.34651 9.63259 2.20906 9.76911 2.12702 9.88206C2.07585 9.95251 2.07599 9.97207 2.07615 9.99584L2.07617 10L2.07615 10.0042C2.07599 10.0279 2.07585 10.0475 2.12702 10.1179C2.20906 10.2309 2.34651 10.3674 2.62365 10.6354C4.13165 12.0934 6.90855 14.25 10.0007 14.25C10.8706 14.25 11.7155 14.0793 12.5143 13.8015L13.6743 14.9616C12.5504 15.4351 11.3108 15.75 10.0007 15.75C6.28123 15.75 3.13021 13.2116 1.58099 11.7137L1.54811 11.682C1.31803 11.4597 1.08203 11.2316 0.913397 10.9995C0.708799 10.7178 0.576172 10.3983 0.576172 10C0.576172 9.60174 0.708799 9.28219 0.913398 9.00052C1.08202 8.76837 1.31802 8.54035 1.54811 8.31805L1.581 8.28626C2.29187 7.59893 3.34 6.69254 4.62555 5.91284L5.72139 7.00868Z"
          fill="currentColor" />
    <path d="M4.16602 1.66602L17.4993 14.9993"
          stroke="currentColor"
          stroke-width="1.5" />
</svg>
