<?xml version="1.0" ?>
<svg xmlns="http://www.w3.org/2000/svg" id="icon-note-light_svg__Layer_1" version="1.1" viewBox="0 0 52 52"
     xml:space="preserve"><style>.icon-note-light_svg__st0 {
    fill: #fff
}</style>
    <path d="M45.652 16.64c1.796 1.635 2.62 1.782 2.303 4.15-.27 2.008-1.547 2.797-2.902 4.115l-6.409 6.239c-2.28 2.218-4.579 5-7.633 6.046-2.168.742-4.171.717-6.236 1.823l1.653 1.27c.47-1.618.5-3.33.941-4.919 1.072-3.863 3.516-6.02 6.186-8.764 1.696-1.743 9.8-12.184 12.715-9.704 1.097.933 2.696-.651 1.591-1.591-4.694-3.994-9.171 2.794-12.158 5.862-2.962 3.044-6.701 6.025-9.156 9.492-1.885 2.66-1.404 5.98-2.289 9.026-.283.974.81 1.723 1.653 1.27 3.085-1.652 6.525-1.236 9.373-3.45 3.625-2.816 6.789-6.56 10.078-9.761 1.808-1.76 5.244-3.988 5.742-6.68.498-2.69-2.12-4.43-3.861-6.014-1.07-.973-2.665.614-1.591 1.59z"
          class="icon-note-light_svg__st0"/>
    <path d="M39.526 20.294c1.207.349 2.228 1.84 3.08 2.709.888.904 1.656 1.612 2.368 2.668.805 1.194 2.755.07 1.943-1.136-.433-.641-.787-1.411-1.376-1.916a28.256 28.256 0 01-1.81-1.682c-1.078-1.098-2.077-2.37-3.607-2.813-1.394-.403-1.989 1.767-.598 2.17zM25.172 38.835l-16.417.155c-1.447.014-1.45 2.264 0 2.25l16.417-.155c1.447-.013 1.45-2.263 0-2.25zM8.339 33.604h16.667c1.447 0 1.45-2.25 0-2.25H8.339c-1.448 0-1.45 2.25 0 2.25zM8.756 26.187h16.416c1.448 0 1.45-2.25 0-2.25H8.756c-1.448 0-1.45 2.25 0 2.25zM8.756 18.77h7.833c1.448 0 1.45-2.25 0-2.25H8.756c-1.448 0-1.45 2.25 0 2.25z"
          class="icon-note-light_svg__st0"/>
    <path d="M36.597 33.806l.135 8.501.06 3.778c.03 1.899.456 2.261-1.07 3.106-1.976 1.094-6.512.29-8.814.29a1971.7 1971.7 0 01-17.324-.071c-1.2-.01-2.678.205-3.85-.037-1.871-.385-2.068.261-2.3-2.052-.572-5.715.012-11.807.018-17.559l.016-16.583c.002-2.25-.85-6.768.008-8.78C4.57 1.84 8.35 2.646 10.598 2.62c2.78-.03 5.562-.04 8.343-.034 3.89.009 5.886.394 9.052 3.135 1.799 1.558 3.511 3.277 5.14 5.01 3.038 3.228 3.428 5.092 3.466 9.334.012 1.447 2.262 1.45 2.25 0-.028-3.16.319-5.494-1.555-8.027-2.165-2.928-5.055-5.449-7.71-7.908-1.42-1.315-2.828-2.96-4.676-3.6-3.32-1.154-8.973-.205-12.456-.177C9.022.381 2.588-1.353 1.228 2.45c-.63 1.76-.004 4.931-.006 6.828l-.007 6.828-.013 12.682-.012 12.68c-.002 1.814-.946 7.453.247 9.03.682.9 1.394.877 2.373 1.105 3.99.93 9.332.09 13.473.108 4.492.02 8.983.026 13.474.016 1.86-.004 5.778.904 7.32-.384 1.335-1.116.982-2.728.98-4.312-.006-4.407-.14-8.817-.21-13.224-.023-1.446-2.273-1.45-2.25 0z"
          class="icon-note-light_svg__st0"/>
    <path d="M23.61 2.979l.05 7.763c.01 1.372-.575 4.17.568 5.229 1.05.973 3.353.463 4.618.464l7.91.004c1.448 0 1.45-2.25 0-2.25l-5.584-.003-2.791-.001c-.258 0-2.633.17-2.792-.002.151.163.328-2.37.328-2.47l-.02-2.912-.037-5.822c-.01-1.448-2.26-1.45-2.25 0z"
          class="icon-note-light_svg__st0"/>
</svg>
