<svg width="15" height="17" viewBox="0 0 15 17" fill="none" xmlns="http://www.w3.org/2000/svg">
    <path d="M1.5 15.5H13.5" stroke="currentColor" stroke-width="2.2" stroke-linecap="round"/>
    <path d="M8.38613 1.30009L8.38613 9.76964L11.2673 7.13513C11.6149 6.82818 12.1687 6.83699 12.5044 7.15481C12.8319 7.46486 12.8319 7.95636 12.5044 8.26635L10.3171 10.2664L8.1298 12.2665C8.0485 12.3408 7.95186 12.3996 7.84543 12.4393C7.6314 12.5202 7.39102 12.5202 7.17699 12.4393C7.0702 12.3994 6.97326 12.3404 6.89175 12.2657L2.51712 8.2656C2.16954 7.95866 2.15991 7.4522 2.49559 7.13438C2.83128 6.81655 3.38515 6.80774 3.73273 7.11469C3.74001 7.12111 3.74718 7.12767 3.75426 7.13438L6.63629 9.76964L6.63629 1.30004C6.63629 0.858184 7.02801 0.5 7.51124 0.5C7.99446 0.5 8.38613 0.858232 8.38613 1.30009Z" fill="currentColor"/>
</svg>
