<?xml version="1.0" encoding="UTF-8"?>

<svg xmlns="http://www.w3.org/2000/svg" viewBox="0 0 17 17" width="17px" height="17px">
    <g fill="currentColor" fill-rule="evenodd">
        <path fill-rule="nonzero"
              d="M8.558 3.475a1.48 1.48 0 100-2.96 1.48 1.48 0 000 2.96zm0-2.22a.74.74 0 110 1.48.74.74 0 010-1.48zM9.096 3.715H8.04a2.016 2.016 0 00-2.071 1.96v.315c0 .203.203.314.406.314h4.365c.203 0 .406-.11.406-.314v-.296c-.02-1.113-.938-2-2.051-1.98zm-2.35 1.85c.037-.555.61-1.11 1.294-1.11h1.036c.684 0 1.258.555 1.295 1.11H6.746z"/>
        <path d="M2.548 9.91a.37.37 0 00.37-.37A5.64 5.64 0 015.026 5.14a.37.37 0 00-.462-.573A6.362 6.362 0 002.178 9.54c0 .204.166.37.37.37zM10.36 14.882a5.622 5.622 0 01-3.578.003.37.37 0 00-.461.24.351.351 0 00.221.463 6.325 6.325 0 004.05 0 .388.388 0 00.241-.48.37.37 0 00-.472-.226zM11.813 4.936A5.622 5.622 0 0114.2 9.54a.37.37 0 10.74 0 6.417 6.417 0 00-2.7-5.216.372.372 0 00-.426.61z"/>
        <path fill-rule="nonzero"
              d="M3.01 13.646a1.48 1.48 0 100-2.959 1.48 1.48 0 000 2.96zm0-2.22a.74.74 0 110 1.48.74.74 0 010-1.48zM3.548 13.886H2.492a2.016 2.016 0 00-2.07 1.96l-.001.02v.295c0 .204.203.315.407.315h4.364c.204 0 .407-.111.407-.315v-.296c-.02-1.113-.938-1.999-2.051-1.979zm-2.35 1.85c.037-.555.61-1.11 1.294-1.11h1.036c.684 0 1.258.555 1.295 1.11H1.198zM12.627 12.167a1.48 1.48 0 102.959 0 1.48 1.48 0 00-2.96 0zm2.22 0a.74.74 0 11-1.48 0 .74.74 0 011.48 0zM14.644 13.886h-1.055a2.016 2.016 0 00-2.071 1.96v.315c0 .204.203.315.406.315h4.365c.203 0 .407-.111.407-.315v-.296c-.02-1.113-.939-1.999-2.052-1.979zm-2.35 1.85c.037-.555.61-1.11 1.295-1.11h1.035c.685 0 1.258.555 1.295 1.11h-3.625z"/>
    </g>
</svg>
