<?xml version="1.0" encoding="UTF-8"?>
<svg xmlns="http://www.w3.org/2000/svg" fill="none" viewBox="0 0 20 20">
    <path fill="currentColor"
          d="M17.895 1.241v1c0 1.009-.854 1.843-1.894 1.843h-.097c-1.04 0-1.903-.835-1.903-1.843V1.108h-2.072v1.133c0 1.009-.862 1.843-1.902 1.843H9.93c-1.041 0-1.895-.835-1.895-1.843V1.108H5.929v1.133c0 1.009-.834 1.843-1.875 1.843h-.096c-1.041 0-1.887-.835-1.887-1.843v-.985C.857 1.642 0 2.743 0 4.04v13.04C0 18.7 1.35 20 3.021 20h13.962C18.654 20 20 18.7 20 17.08V4.04c.002-1.314-.89-2.427-2.105-2.799zm.607 15.57c0 .938-.778 1.701-1.745 1.701H3.249c-.967 0-1.748-.763-1.748-1.7V7.546c0-.639.53-1.145 1.19-1.145h14.625c.66 0 1.186.506 1.186 1.145v9.264z"/>
    <path fill="currentColor"
          d="M6.487 8.546A.555.555 0 005.923 8H3.954a.555.555 0 00-.563.546v1.907c0 .303.252.547.563.547h1.97a.555.555 0 00.563-.547V8.546zM11.647 8.546A.555.555 0 0011.084 8h-1.97a.555.555 0 00-.563.546v1.907c0 .303.252.547.564.547h1.969a.555.555 0 00.563-.547V8.546zM16.809 8.546A.555.555 0 0016.245 8h-1.969a.555.555 0 00-.564.546v1.907c0 .303.252.547.564.547h1.969a.555.555 0 00.564-.547V8.546zM6.487 13.546A.555.555 0 005.923 13H3.954a.555.555 0 00-.563.546v1.908c0 .301.252.546.563.546h1.97a.555.555 0 00.563-.546v-1.908zM11.647 13.546a.555.555 0 00-.563-.546h-1.97a.555.555 0 00-.563.546v1.908c0 .301.252.546.564.546h1.969a.555.555 0 00.563-.546v-1.908zM16.809 13.546a.555.555 0 00-.564-.546h-1.969a.555.555 0 00-.564.546v1.908c0 .301.252.546.564.546h1.969a.555.555 0 00.564-.546v-1.908zM3.958 3.184h.096c.3 0 .565-.122.746-.326a.915.915 0 00.236-.617V.944c0-.261-.106-.499-.282-.672L4.751.268C4.75.266 4.75.273 4.748.272A.994.994 0 004.054 0h-.096c-.272 0-.517.099-.695.27 0 .002-.002 0-.003 0-.002.002-.006.001-.007.002a.936.936 0 00-.288.67v1.298c0 .238.093.45.242.617a.997.997 0 00.751.326zM9.368 3.031l.009.003c.002.002.008-.003.01-.002.156.1.344.152.545.152h.096c.17 0 .329-.034.467-.107l.005.002c.003-.002-.001-.002.003-.004a.943.943 0 00.5-.835V.943a.94.94 0 00-.385-.762c-.002-.002 0-.003-.002-.005l.002.008a.99.99 0 00-.59-.183h-.095a.995.995 0 00-.663.24L9.269.24c-.002.002-.01.002-.013.003a.943.943 0 00-.325.702v1.298c0 .327.178.617.437.789zM15.905 3.183H16c.3 0 .573-.122.756-.326a.923.923 0 00.246-.617V.944a.961.961 0 00-.52-.84l-.008-.002a1.333 1.333 0 00-.107-.047l-.028-.01a.607.607 0 01-.014-.005c-.01-.004-.021 0-.031-.003A1.016 1.016 0 0016.001 0h-.096c-.05 0-.094-.003-.143.004a.954.954 0 00-.831.939V2.24c0 .528.429.942.974.942z"/>
</svg>
