<svg width="69" height="78" viewBox="0 0 69 78" fill="none" xmlns="http://www.w3.org/2000/svg">
    <g filter="url(#filter0_d)">
        <path fill-rule="evenodd" clip-rule="evenodd"
              d="M60.4994 39C60.4994 55.5684 47.0671 69 30.5 69C13.9316 69 0.5 55.5684 0.5 39C0.5 22.4316 13.9316 9 30.5 9C47.0671 9 60.4994 22.4316 60.4994 39Z"
              fill="#88AABA" stroke="white"/>
        <mask id="mask0" mask-type="alpha" maskUnits="userSpaceOnUse" x="0" y="9" width="61" height="60">
            <path d="M59.9994 39C59.9994 55.2923 46.791 68.5 30.5 68.5C14.2077 68.5 1 55.2923 1 39C1 22.7077 14.2077 9.5 30.5 9.5C46.791 9.5 59.9994 22.7077 59.9994 39Z"
                  fill="white" stroke="white"/>
        </mask>
        <g mask="url(#mask0)">
            <path d="M16.688 42H22.364V41.124H17.636V33.6H16.688V42ZM26.6765 42.144C28.5485 42.144 29.9285 40.656 29.9285 38.904V38.88C29.9285 37.128 28.5605 35.664 26.7005 35.664C24.8285 35.664 23.4605 37.152 23.4605 38.904V38.928C23.4605 40.68 24.8165 42.144 26.6765 42.144ZM26.7005 41.316C25.3925 41.316 24.4085 40.236 24.4085 38.904V38.88C24.4085 37.572 25.3325 36.48 26.6765 36.48C27.9845 36.48 28.9805 37.572 28.9805 38.904V38.928C28.9805 40.236 28.0445 41.316 26.7005 41.316ZM34.3503 43.944C35.3343 43.944 36.1623 43.668 36.7143 43.116C37.2183 42.612 37.5063 41.88 37.5063 40.92V35.796H36.5823V36.912C36.0783 36.24 35.3223 35.664 34.1583 35.664C32.6823 35.664 31.2423 36.78 31.2423 38.592V38.616C31.2423 40.404 32.6703 41.52 34.1583 41.52C35.2983 41.52 36.0543 40.932 36.5943 40.212V40.944C36.5943 42.396 35.7063 43.152 34.3383 43.152C33.4503 43.152 32.6583 42.876 31.9503 42.36L31.5303 43.08C32.3583 43.656 33.3183 43.944 34.3503 43.944ZM34.3383 40.704C33.1863 40.704 32.1903 39.84 32.1903 38.592V38.568C32.1903 37.296 33.1623 36.48 34.3383 36.48C35.5143 36.48 36.6183 37.308 36.6183 38.58V38.604C36.6183 39.852 35.5143 40.704 34.3383 40.704ZM42.4031 42.144C44.2751 42.144 45.6551 40.656 45.6551 38.904V38.88C45.6551 37.128 44.2871 35.664 42.4271 35.664C40.5551 35.664 39.1871 37.152 39.1871 38.904V38.928C39.1871 40.68 40.5431 42.144 42.4031 42.144ZM42.4271 41.316C41.1191 41.316 40.1351 40.236 40.1351 38.904V38.88C40.1351 37.572 41.0591 36.48 42.4031 36.48C43.7111 36.48 44.7071 37.572 44.7071 38.904V38.928C44.7071 40.236 43.7711 41.316 42.4271 41.316Z"
                  fill="white"/>
        </g>
    </g>
    <defs>
        <filter id="filter0_d" x="-8" y="0.5" width="76.9994" height="77" filterUnits="userSpaceOnUse"
                color-interpolation-filters="sRGB">
            <feFlood flood-opacity="0" result="BackgroundImageFix"/>
            <feColorMatrix in="SourceAlpha" type="matrix" values="0 0 0 0 0 0 0 0 0 0 0 0 0 0 0 0 0 0 127 0"/>
            <feOffset/>
            <feGaussianBlur stdDeviation="4"/>
            <feColorMatrix type="matrix" values="0 0 0 0 0 0 0 0 0 0 0 0 0 0 0 0 0 0 0.1 0"/>
            <feBlend mode="normal" in2="BackgroundImageFix" result="effect1_dropShadow"/>
            <feBlend mode="normal" in="SourceGraphic" in2="effect1_dropShadow" result="shape"/>
        </filter>
    </defs>
</svg>
