<?xml version="1.0" encoding="UTF-8"?>
<svg width="21" height="24" viewBox="0 0 21 24" fill="none" xmlns="http://www.w3.org/2000/svg">
    <path d="M17.7117 16.152C17.0648 15.341 15.8544 14.1211 15.8544 10.125C15.8544 7.08984 14.0303 4.66016 11.5708 4.06406V3.25C11.5708 2.55977 11.0913 2 10.5 2C9.90871 2 9.42924 2.55977 9.42924 3.25V4.06406C6.96965 4.66016 5.14555 7.08984 5.14555 10.125C5.14555 14.1211 3.93518 15.341 3.2883 16.152C3.08741 16.4039 2.99835 16.7051 3.00002 17C3.00371 17.6406 3.43462 18.25 4.0748 18.25H16.9252C17.5654 18.25 17.9966 17.6406 18 17C18.0017 16.7051 17.9126 16.4035 17.7117 16.152ZM5.26107 16.375C5.97155 15.2824 6.74834 13.4715 6.75202 10.1477C6.75202 10.1398 6.75001 10.1328 6.75001 10.125C6.75001 7.70859 8.4288 5.75 10.5 5.75C12.5712 5.75 14.25 7.70859 14.25 10.125C14.25 10.1328 14.248 10.1398 14.248 10.1477C14.2517 13.4719 15.0284 15.2828 15.7389 16.375H5.26107ZM10.5 22C11.6826 22 12.6418 20.8809 12.6418 19.5H8.35815C8.35815 20.8809 9.31741 22 10.5 22Z"
          fill="currentColor"/>
</svg>
