<?xml version="1.0" encoding="UTF-8"?>
<svg width="18px" height="19px" viewBox="0 0 18 19" fill="#4882c7" version="1.1" xmlns="http://www.w3.org/2000/svg"
     xmlns:xlink="http://www.w3.org/1999/xlink">
    <!-- Generator: sketchtool 58 (101010) - https://sketch.com -->
    <title>45821308-9A0B-4AC8-B107-633EE1B6CE13</title>
    <desc>Created with sketchtool.</desc>
    <g id="2-Contacts" stroke="none" stroke-width="1" fill="#4882c7" fill-rule="evenodd">
        <g id="2-5-3-Contact---Dropdown---Users" fill="#4882c7" transform="translate(-13.000000, -440.000000)"
           fill-rule="nonzero">
            <g id="Group" fill="#4882c7" transform="translate(1.754967, 2.225731)">
                <g id="ico-update" fill="#4882c7" transform="translate(12.207533, 438.402269)">
                    <path d="M1.13363488,8.99958881 C1.13363488,11.3075658 2.28029056,13.3477248 4.03495067,14.5814145 C4.34416119,14.7989309 4.36060856,15.2505482 4.06359649,15.484375 L4.05523575,15.490954 C3.86129386,15.6436404 3.58936404,15.6537829 3.38733551,15.5119244 C1.33895284,14.0733279 0,11.6927084 0,8.99958881 C0,4.63130484 3.61581688,1.08511512 7.97532895,1.04783442 L7.97532895,2.18174344 C4.24150218,2.21875 1.13363488,5.25712719 1.13363488,8.99958881 Z"
                          id="Path" fill="#4882c7"></path>
                    <path d="M8.18352523,0.0338541754 L10.2668586,1.45888158 C10.3784265,1.53522477 10.3784265,1.69983551 10.2668586,1.77617874 L8.18352523,3.20120614 C8.05592105,3.28851425 7.88281249,3.19709432 7.88281249,3.04262611 L7.88281249,0.192571263 C7.88281249,0.037966 8.05592105,-0.0533168772 8.18352523,0.0338541754 L8.18352523,0.0338541754 Z"
                          id="Path" fill="#4882c7"></path>
                    <path d="M14.9257127,8.96532347 C14.9257127,6.65734649 13.77892,4.61718751 12.0242599,3.38349782 C11.7150493,3.16598137 11.698602,2.71436404 11.995614,2.48053726 L12.0039748,2.47395832 C12.1979167,2.32127193 12.4698465,2.3111294 12.671875,2.45298793 C14.7203947,3.89158442 16.0592105,6.27220393 16.0592105,8.96532347 C16.0592105,13.3336074 12.4495614,16.8797972 8.08991228,16.9170779 L8.08991228,15.7831688 C11.823739,15.7461623 14.9257127,12.7079221 14.9257127,8.96532347 L14.9257127,8.96532347 Z"
                          id="Path" fill="#4882c7"></path>
                    <path d="M7.87582239,17.9310581 L5.79248905,16.5060307 C5.68092105,16.4296875 5.68092105,16.2650768 5.79248905,16.1887335 L7.87582239,14.7637061 C8.00328947,14.676398 8.17653509,14.767818 8.17653509,14.9222862 L8.17653509,17.772341 C8.17653509,17.9269463 8.00328947,18.0183662 7.87582239,17.9310581 Z"
                          id="Path" fill="#4882c7"></path>
                    <path d="M11.5659265,8.09895832 L8.15337172,10.9290022 L7.29303726,11.6425439 C7.09032347,11.8104441 6.83374453,11.9015899 6.57277961,11.9015899 C6.52933116,11.9015899 6.48588267,11.8991228 6.44202302,11.8940515 C6.13760965,11.8582785 5.85745614,11.6968202 5.67365681,11.4513432 L4.34662828,9.68242874 C4.04701207,9.28289474 4.12801537,8.71573467 4.52768639,8.41557018 C4.92763158,8.11595396 5.49479165,8.19695723 5.79454495,8.59662828 L6.69037828,9.79111842 L6.69764253,9.78522477 L10.4109101,6.70572916 C10.7956414,6.38692435 11.366091,6.44010418 11.6850329,6.82483551 C12.0039748,7.20956688 11.9506579,7.78001646 11.5659265,8.09895832 L11.5659265,8.09895832 Z"
                          id="Path" stroke="#4882c7"></path>
                </g>
            </g>
        </g>
    </g>
</svg>
