<?xml version="1.0" encoding="UTF-8"?>
<svg width="16" height="16" viewBox="0 0 16 16" fill="none" xmlns="http://www.w3.org/2000/svg">
    <path fill-rule="evenodd" clip-rule="evenodd"
          d="M3 2.375C3 1.6875 3.5625 1.125 4.25 1.125C4.9375 1.125 5.5 1.6875 5.5 2.375C5.5 3.0625 4.9375 3.625 4.25 3.625C3.5625 3.625 3 3.0625 3 2.375ZM6.75 13.625C6.75 12.9375 7.3125 12.375 8 12.375C8.6875 12.375 9.25 12.9375 9.25 13.625C9.25 14.3125 8.6875 14.875 8 14.875C7.3125 14.875 6.75 14.3125 6.75 13.625ZM4.25 4.875C3.5625 4.875 3 5.4375 3 6.125C3 6.8125 3.5625 7.375 4.25 7.375C4.9375 7.375 5.5 6.8125 5.5 6.125C5.5 5.4375 4.9375 4.875 4.25 4.875ZM3 9.875C3 9.1875 3.5625 8.625 4.25 8.625C4.9375 8.625 5.5 9.1875 5.5 9.875C5.5 10.5625 4.9375 11.125 4.25 11.125C3.5625 11.125 3 10.5625 3 9.875ZM11.75 3.625C12.4375 3.625 13 3.0625 13 2.375C13 1.6875 12.4375 1.125 11.75 1.125C11.0625 1.125 10.5 1.6875 10.5 2.375C10.5 3.0625 11.0625 3.625 11.75 3.625ZM6.75 9.875C6.75 9.1875 7.3125 8.625 8 8.625C8.6875 8.625 9.25 9.1875 9.25 9.875C9.25 10.5625 8.6875 11.125 8 11.125C7.3125 11.125 6.75 10.5625 6.75 9.875ZM11.75 8.625C11.0625 8.625 10.5 9.1875 10.5 9.875C10.5 10.5625 11.0625 11.125 11.75 11.125C12.4375 11.125 13 10.5625 13 9.875C13 9.1875 12.4375 8.625 11.75 8.625ZM10.5 6.125C10.5 5.4375 11.0625 4.875 11.75 4.875C12.4375 4.875 13 5.4375 13 6.125C13 6.8125 12.4375 7.375 11.75 7.375C11.0625 7.375 10.5 6.8125 10.5 6.125ZM8 4.875C7.3125 4.875 6.75 5.4375 6.75 6.125C6.75 6.8125 7.3125 7.375 8 7.375C8.6875 7.375 9.25 6.8125 9.25 6.125C9.25 5.4375 8.6875 4.875 8 4.875ZM6.75 2.375C6.75 1.6875 7.3125 1.125 8 1.125C8.6875 1.125 9.25 1.6875 9.25 2.375C9.25 3.0625 8.6875 3.625 8 3.625C7.3125 3.625 6.75 3.0625 6.75 2.375Z"
          fill="currentColor"/>
</svg>
