<svg width="25" height="19" viewBox="0 0 25 19" fill="none" xmlns="http://www.w3.org/2000/svg">
    <path d="M22.25 0H2.75C1.50734 0 0.5 1.01978 0.5 2.27778V15.9444C0.5 17.2024 1.50734 18.2222 2.75 18.2222H22.25C23.4927 18.2222 24.5 17.2024 24.5 15.9444V2.27778C24.5 1.01978 23.4927 0 22.25 0ZM22.25 2.27778V4.21413C21.199 5.08058 19.5234 6.42789 15.9412 9.26747C15.1518 9.89609 13.5881 11.4063 12.5 11.3887C11.4121 11.4065 9.84786 9.89585 9.05877 9.26747C5.47719 6.42832 3.80117 5.08073 2.75 4.21413V2.27778H22.25ZM2.75 15.9444V7.13694C3.82409 8.00302 5.3473 9.21836 7.66897 11.0588C8.69352 11.8752 10.4878 13.6776 12.5 13.6666C14.5024 13.6776 16.2739 11.9014 17.3306 11.0592C19.6522 9.21878 21.1759 8.00311 22.25 7.13699V15.9444H2.75Z"
          fill="currentColor"/>
</svg>
