<?xml version="1.0" encoding="UTF-8"?>
<svg width="72" height="72" viewBox="0 0 72 72" fill="none" xmlns="http://www.w3.org/2000/svg">
    <path d="M72 36.0007C72 45.6166 68.2553 54.6566 61.4559 61.4559C54.6566 68.2553 45.6166 72 36.0007 72C26.3848 72 17.3434 68.2553 10.5441 61.4559C3.7447 54.6566 0 45.6166 0 36.0007C0 26.3848 3.7447 17.3434 10.5441 10.5441C17.3434 3.7447 26.3848 0 36.0007 0C45.6166 0 54.6566 3.7447 61.4559 10.5441C68.2553 17.3434 72 26.3848 72 36.0007Z"
          fill="#EBF2F8"/>
    <path d="M72 36.0007C72 45.6166 68.2553 54.6566 61.456 61.4559C54.6566 68.2553 45.6167 72 36.0007 72V0C45.6167 0 54.6566 3.7447 61.456 10.5441C68.2553 17.3434 72 26.3848 72 36.0007Z"
          fill="#E2E7ED"/>
    <path d="M62.822 36.001C62.822 50.7896 50.7894 62.8208 36.0007 62.8208C21.2106 62.8208 9.17944 50.7896 9.17944 36.001C9.17944 21.2109 21.2106 9.17969 36.0007 9.17969C50.7894 9.17969 62.822 21.2109 62.822 36.001Z"
          fill="#25ADFF"/>
    <path d="M62.822 36.001C62.822 50.7896 50.7894 62.8208 36.0007 62.8208V9.17969C50.7894 9.17969 62.822 21.2109 62.822 36.001Z"
          fill="#28AAF9"/>
    <path d="M46.6813 33.7542L36.0098 44.4275L35.0345 45.4027C34.5118 45.9255 33.8269 46.1862 33.1403 46.1862H33.0999C32.4238 46.1862 31.748 45.9292 31.232 45.4134L25.4879 39.6675C24.4562 38.6376 24.4562 36.9652 25.4879 35.9337C26.5195 34.9022 28.1919 34.9021 29.2216 35.9337L33.0769 39.7872L36.0096 36.8545L42.8962 29.9679C43.9419 28.9222 45.6371 28.9222 46.6811 29.9679C47.727 31.0133 47.727 32.7085 46.6813 33.7542Z"
          fill="white"/>
    <path d="M46.6813 33.7544L36.0098 44.4277V36.8545L42.8963 29.9679C43.9421 28.9222 45.6373 28.9222 46.6813 29.9679C47.727 31.0134 47.727 32.7087 46.6813 33.7544Z"
          fill="#EBF2F8"/>
</svg>
