<?xml version="1.0" encoding="UTF-8"?>
<svg width="57" height="76" viewBox="0 0 57 76" fill="none" xmlns="http://www.w3.org/2000/svg">
    <path d="M33.25 20.1596V0H3.5625C1.58828 0 0 1.58609 0 3.55758V72.3374C0 74.3089 1.58828 75.895 3.5625 75.895H53.4375C55.4117 75.895 57 74.3089 57 72.3374V23.7172H36.8125C34.8531 23.7172 33.25 22.1163 33.25 20.1596ZM42.1711 35.9464L33.25 49.8061L42.1711 63.6658C42.9281 64.8517 42.082 66.4081 40.6719 66.4081H35.4914C34.8383 66.4081 34.2297 66.0524 33.918 65.4743C31.0086 60.1083 28.5 55.2907 28.5 55.2907C27.55 57.4846 27.0156 58.2554 23.0672 65.4891C22.7555 66.0672 22.1617 66.423 21.5086 66.423H16.3281C14.918 66.423 14.0719 64.8665 14.8289 63.6807L23.7797 49.8209L14.8289 35.9612C14.057 34.7753 14.918 33.2189 16.3281 33.2189H21.4937C22.1469 33.2189 22.7555 33.5747 23.0672 34.1528C26.9414 41.3865 26.0359 39.1334 28.5 44.3067C28.5 44.3067 29.4055 42.5724 33.9328 34.1528C34.2445 33.5747 34.8531 33.2189 35.5062 33.2189H40.6719C42.082 33.2041 42.9281 34.7605 42.1711 35.9464ZM57 18.0695V18.9738H38V0H38.9055C39.8555 0 40.7609 0.370581 41.4289 1.03763L55.9609 15.5644C56.6289 16.2315 57 17.1357 57 18.0695Z"
          fill="#1E673F"/>
</svg>
