<?xml version="1.0" encoding="UTF-8"?>
<svg width="18" height="17" viewBox="0 0 18 17" fill="none" xmlns="http://www.w3.org/2000/svg">
    <path fill-rule="evenodd" clip-rule="evenodd"
          d="M2.51672 0H16.4308C17.285 0 17.9768 0.651144 17.9768 1.45507V14.5507C17.9768 15.3546 17.285 16.0058 16.4308 16.0058H2.51672C1.66254 16.0058 0.970703 15.3546 0.970703 14.5507V1.45507C0.970703 0.651144 1.66254 0 2.51672 0ZM4.83604 8.7304H14.1121C14.5388 8.7304 14.8851 8.40446 14.8851 8.00286C14.8851 7.60127 14.5388 7.27533 14.1121 7.27533H4.83604C4.40934 7.27533 4.06303 7.60127 4.06303 8.00286C4.06303 8.40446 4.40934 8.7304 4.83604 8.7304ZM14.1121 5.0928H4.83604C4.40934 5.0928 4.06303 4.76686 4.06303 4.36526C4.06303 3.96366 4.40934 3.63773 4.83604 3.63773H14.1121C14.5388 3.63773 14.8851 3.96366 14.8851 4.36526C14.8851 4.76686 14.5388 5.0928 14.1121 5.0928ZM4.83604 12.3681H14.1121C14.5388 12.3681 14.8851 12.0422 14.8851 11.6406C14.8851 11.239 14.5388 10.9131 14.1121 10.9131H4.83604C4.40934 10.9131 4.06303 11.239 4.06303 11.6406C4.06303 12.0422 4.40934 12.3681 4.83604 12.3681Z"
          fill="#999999"/>
</svg>
