<?xml version="1.0" encoding="UTF-8"?>
<svg xmlns="http://www.w3.org/2000/svg" viewBox="0 0 14 18" width="14px" height="18px">
    <g fill="currentColor" fill-rule="evenodd" stroke="currentColor" stroke-width=".2">
        <path d="M12.6 5.8H9v.8h3.2v9.6H1.8V6.6H5v-.8H1.4a.4.4 0 00-.4.4v10.4c0 .22.18.4.4.4h11.2a.4.4 0 00.4-.4V6.2a.4.4 0 00-.4-.4z"/>
        <path d="M9.686 8.32a.4.4 0 00-.565-.006L7.4 9.997V1.4a.4.4 0 00-.8 0v8.597L4.88 8.314a.4.4 0 00-.56.572l2.4 2.347a.4.4 0 00.566-.006L9.68 8.886a.4.4 0 00.006-.566z"/>
    </g>
</svg>
