<?xml version="1.0" encoding="UTF-8"?>
<svg width="13px" height="13px" viewBox="0 0 13 13" version="1.1" xmlns="http://www.w3.org/2000/svg" xmlns:xlink="http://www.w3.org/1999/xlink">
    <!-- Generator: sketchtool 53.2 (72643) - https://sketchapp.com -->
    <title>60DB8F25-A833-44A7-B6C7-2A66C8E748BE</title>
    <desc>Created with sketchtool.</desc>
    <g id="4-Campaign" stroke="none" stroke-width="1" fill="none" fill-rule="evenodd">
        <g id="4-1-2-Campaign---Detail---Automation" transform="translate(-285.000000, -285.000000)" fill="#908c8c" fill-rule="nonzero">
            <g id="day" transform="translate(264.000000, 142.000000)">
                <g id="Day-0" transform="translate(0.000000, 0.275479)">
                    <g id="event-1" transform="translate(1.002683, 35.000000)">
                        <g id="btn" transform="translate(20.000000, 108.000000)">
                            <g id="ico-speaker">
                                <path d="M6.015625,0.03125 C5.855469,0.033203 5.6777345,0.1035155 5.515625,0.265625 L2.65625,3.5 L0.5,3.5 C0.2246095,3.5 0,3.7246095 0,4 L0,8 C0,8.2753905 0.2246095,8.5 0.5,8.5 L2.65625,8.5 L5.5,11.71875 C6,12.21875 6.5,11.9628905 6.5,11.28125 L6.5,0.640625 C6.5,0.2441405 6.283203,0.029297 6.015625,0.03125 Z M9.640625,1.03125 C9.421875,1.0683595 9.2539065,1.246094 9.2285155,1.466797 C9.205078,1.6875 9.326172,1.8984375 9.53125,1.984375 C11,2.7246095 12,4.2382815 12,6 C12,7.761719 11,9.2753905 9.53125,10.015625 C9.3476565,10.078125 9.21875,10.2421875 9.1972655,10.433594 C9.1757815,10.626953 9.267578,10.814453 9.433594,10.9160155 C9.5976565,11.015625 9.8066405,11.011719 9.96875,10.90625 C11.763672,10 13,8.1445315 13,6 C13,3.855469 11.763672,2 9.96875,1.09375 C9.8828125,1.044922 9.7851565,1.0234375 9.6875,1.03125 C9.671875,1.03125 9.65625,1.03125 9.640625,1.03125 Z M8.453125,2.96875 C8.232422,2.984375 8.048828,3.1445315 8.001953,3.361328 C7.955078,3.578125 8.0546875,3.8007815 8.25,3.90625 C9.0214845,4.3847655 9.5,5.1445315 9.5,6 C9.5,6.861328 9.013672,7.6308595 8.234375,8.109375 C8.0683595,8.1972655 7.964844,8.371094 7.966797,8.558594 C7.96875,8.746094 8.076172,8.9160155 8.246094,9 C8.4140625,9.0839845 8.6152345,9.064453 8.765625,8.953125 C9.8007815,8.3183595 10.5,7.2382815 10.5,6 C10.5,4.7695315 9.8066405,3.683594 8.78125,3.046875 C8.6972655,2.9941405 8.5996095,2.966797 8.5,2.96875 C8.484375,2.96875 8.46875,2.96875 8.453125,2.96875 Z" id="Shape"></path>
                            </g>
                        </g>
                    </g>
                </g>
            </g>
        </g>
    </g>
</svg>
