<?xml version="1.0" encoding="UTF-8"?>
<svg width="73px" height="72px" viewBox="0 0 73 72" version="1.1" xmlns="http://www.w3.org/2000/svg"
     xmlns:xlink="http://www.w3.org/1999/xlink">
    <!-- Generator: sketchtool 59 (101010) - https://sketch.com -->
    <title>A80DA0E7-0C1C-4657-A77A-10226786FFFC</title>
    <desc>Created with sketchtool.</desc>
    <defs>
        <circle id="path-1" cx="36.5158537" cy="36" r="36"></circle>
    </defs>
    <g id="0-Sign-in-&amp;-Register" stroke="none" stroke-width="1" fill="none" fill-rule="evenodd">
        <g id="0-2-2-Onboarding---Email" transform="translate(-647.000000, -280.000000)">
            <g id="card" transform="translate(473.000000, 232.000000)">
                <g id="ico-email" transform="translate(173.625000, 48.000000)">
                    <mask id="mask-2" fill="white">
                        <use xlink:href="#path-1"></use>
                    </mask>
                    <use id="Oval" fill="#EAF0F6" xlink:href="#path-1"></use>
                    <g id="2121940" mask="url(#mask-2)" fill-rule="nonzero">
                        <g transform="translate(15.515854, 19.347656)" id="Path">
                            <path d="M40.0767773,2.87207812 C39.8992617,2.41860937 39.5381602,2.06144531 39.0827227,1.88901562 C32.529,-0.592839844 9.41833594,-0.593660156 2.86248047,1.88901562 C2.407125,2.06144531 2.04594141,2.41860937 1.86842578,2.87207812 C1.79221875,3.06698437 2.84217094e-14,7.74760547 2.84217094e-14,16.6250273 C2.84217094e-14,25.5024492 1.79221875,30.1829883 1.86850781,30.3779766 C2.04602344,30.8314453 2.407125,31.1886094 2.8625625,31.3610391 C9.41628516,33.8428945 32.5269492,33.8437148 39.0828047,31.3610391 C39.5381602,31.1886094 39.8993438,30.8314453 40.0768594,30.3779766 C40.1531484,30.1830703 41.9453672,25.5023672 41.9453672,16.6250273 C41.9453672,7.7476875 40.1530664,3.06698437 40.0767773,2.87207812 Z"
                                  fill="#E8C3B4"></path>
                            <path d="M39.6588281,28.5010195 L22.1591836,11.8758281 C21.4943203,11.2441055 20.4509648,11.2441055 19.7860195,11.8758281 L2.28645703,28.5010195 C1.36696875,29.3746523 1.67688281,30.911918 2.86289062,31.360957 C9.40586719,33.8378906 32.5147266,33.8472422 39.0823945,31.360957 C40.2685664,30.911918 40.5782344,29.3745703 39.6588281,28.5010195 Z"
                                  fill="#FDEAD1"></path>
                            <path d="M39.0823945,1.88893359 C32.539418,-0.588 9.43055859,-0.597351562 2.86289062,1.88893359 C1.67671875,2.33805469 1.36705078,3.87532031 2.28645703,4.74887109 L19.7861016,21.3740625 C20.4509648,22.0057852 21.4943203,22.0057852 22.1592656,21.3740625 L39.6588281,4.74895312 C40.5783164,3.87532031 40.2684023,2.33805469 39.0823945,1.88893359 Z"
                                  fill="#FFF3E4"></path>
                        </g>
                    </g>
                </g>
            </g>
        </g>
    </g>
</svg>
