<?xml version="1.0" encoding="UTF-8"?>
<svg xmlns="http://www.w3.org/2000/svg" viewBox="0 0 18 19" width="18px" height="19px">
    <g fill="currentColor" fill-rule="nonzero">
        <path d="M15.98 3.888l-.21-.258-3.195 3.195.14.205c.509.747.778 1.622.778 2.529 0 .907-.269 1.781-.778 2.528l-.14.206 3.195 3.195.21-.258a9.02 9.02 0 002.013-5.671 9.02 9.02 0 00-2.013-5.671zM11.522 13.28a4.5 4.5 0 01-6.947-2.878l-.046-.244H.007l.034.331a8.97 8.97 0 008.952 8.07 9.02 9.02 0 005.671-2.013l.258-.21-3.195-3.196-.205.14zM8.993 1.758c1.448 0 2.87.408 4.093 1.162l-1.54 1.54a5.703 5.703 0 00-7.959 3.298H1.4c.814-3.482 3.92-6 7.592-6zm0-1.2a8.97 8.97 0 00-8.952 8.07l-.034.33h4.522l.046-.243a4.5 4.5 0 016.947-2.879l.205.14 3.195-3.195-.258-.21A9.02 9.02 0 008.994.558z"/>
    </g>
</svg>
