<svg width="19" height="21" viewBox="0 0 19 21" fill="none" xmlns="http://www.w3.org/2000/svg">
    <path d="M6.03515 12.4685C4.58553 12.5669 3.26996 13.1496 2.52347 15.226C2.43856 15.4628 2.23441 15.6066 1.9963 15.6066C1.59487 15.6066 0.353733 14.5513 0 14.2965C0.000361321 17.4374 1.37085 20.1979 4.62527 20.1979C7.36625 20.1979 9.25018 18.5285 9.25018 15.6139C9.25018 15.4953 9.22669 15.382 9.21513 15.2657L6.03515 12.4685ZM16.5449 0.670166C15.9971 0.670166 15.4837 0.926087 15.092 1.29757C7.70626 8.26197 6.93773 8.42559 6.93773 10.4756C6.93773 10.9981 7.05515 11.4963 7.25316 11.9517L9.55911 13.9799C9.81962 14.0486 10.0881 14.0955 10.3681 14.0955C12.6123 14.0955 13.913 12.3613 17.9978 4.31408C18.2644 3.76677 18.5 3.1756 18.5 2.56001C18.5 1.45738 17.5606 0.670166 16.5449 0.670166Z"
          fill="currentColor"/>
</svg>
