<?xml version="1.0" encoding="UTF-8"?>
<svg width="16"
     height="15"
     viewBox="0 0 16 15"
     fill="none"
     xmlns="http://www.w3.org/2000/svg">
    <path d="M0 1.5C0 0.947715 0.447715 0.5 1 0.5H15C15.5523 0.5 16 0.947715 16 1.5C16 2.05228 15.5523 2.5 15 2.5H1C0.447715 2.5 0 2.05228 0 1.5ZM0 5.5C0 4.94772 0.447715 4.5 1 4.5H15C15.5523 4.5 16 4.94772 16 5.5C16 6.05228 15.5523 6.5 15 6.5H1C0.447715 6.5 0 6.05228 0 5.5ZM0 9.5C0 8.94772 0.447715 8.5 1 8.5H15C15.5523 8.5 16 8.94772 16 9.5C16 10.0523 15.5523 10.5 15 10.5H1C0.447715 10.5 0 10.0523 0 9.5ZM0 13.5C0 12.9477 0.447715 12.5 1 12.5H15C15.5523 12.5 16 12.9477 16 13.5C16 14.0523 15.5523 14.5 15 14.5H1C0.447715 14.5 0 14.0523 0 13.5Z"
          fill="currentColor" />
</svg>
